{"glyphs":{"0":{"ha":571,"x_min":68,"x_max":503,"o":"m 503 682 l 503 290 q 447 47 503 114 q 285 -21 390 -21 q 124 47 181 -21 q 68 290 68 114 l 68 682 q 124 926 68 858 q 285 993 181 993 q 447 926 390 993 q 503 682 503 858 m 393 269 l 393 703 q 286 903 393 903 q 206 860 235 903 q 178 703 178 817 l 178 269 q 206 113 178 156 q 286 69 235 69 q 393 269 393 69 z "},"1":{"ha":326,"x_min":8,"x_max":239,"o":"m 239 972 l 239 0 l 128 0 l 128 849 l 8 849 l 8 913 l 178 972 l 239 972 z "},"2":{"ha":556,"x_min":71,"x_max":489,"o":"m 72 739 q 136 938 85 882 q 283 993 188 993 q 434 942 379 993 q 489 760 489 892 q 403 490 489 629 l 153 89 l 486 89 l 486 0 l 71 0 l 71 67 q 94 193 71 138 q 196 374 117 249 l 311 554 q 379 763 379 649 q 353 875 379 843 q 278 907 326 907 q 204 867 231 907 q 169 724 178 828 l 72 739 z "},"3":{"ha":567,"x_min":65,"x_max":499,"o":"m 274 69 q 388 226 388 69 l 388 265 q 358 410 388 372 q 271 449 328 449 l 206 449 l 206 535 l 272 535 q 349 574 321 538 q 376 701 376 611 l 376 743 q 278 907 376 907 q 202 867 229 907 q 168 724 175 828 l 69 739 q 133 938 82 882 q 281 993 185 993 q 430 935 376 993 q 483 719 483 878 q 403 506 483 561 q 499 251 499 449 q 438 40 499 101 q 278 -21 378 -21 q 128 35 179 -21 q 65 233 76 90 l 164 247 q 198 106 172 143 q 274 69 224 69 z "},"4":{"ha":526,"x_min":10,"x_max":488,"o":"m 321 0 l 321 228 l 10 228 l 10 281 l 243 972 l 431 972 l 431 317 l 488 317 l 488 228 l 431 228 l 431 0 l 321 0 m 321 317 l 321 894 l 124 317 l 321 317 z "},"5":{"ha":525,"x_min":58,"x_max":476,"o":"m 85 464 l 85 972 l 460 972 l 460 883 l 186 883 l 186 550 l 260 550 q 421 494 365 550 q 476 274 476 438 q 420 45 476 111 q 268 -21 364 -21 q 121 35 172 -21 q 58 233 69 92 l 156 246 q 189 106 164 142 q 263 69 214 69 q 341 112 313 69 q 369 265 369 154 l 369 296 q 342 427 369 390 q 260 464 314 464 l 85 464 z "},"6":{"ha":561,"x_min":68,"x_max":503,"o":"m 310 569 q 352 569 310 569 q 449 506 394 569 q 503 274 503 442 q 446 43 503 107 q 285 -21 389 -21 q 124 43 181 -21 q 68 276 68 107 l 68 675 q 125 924 68 856 q 277 993 182 993 q 423 944 372 993 q 485 768 474 894 l 383 743 q 353 868 378 833 q 281 903 329 903 q 206 859 233 903 q 178 699 178 815 l 178 518 q 310 569 225 569 m 397 257 l 397 292 q 288 483 397 483 q 178 303 179 483 l 178 257 q 288 65 178 65 q 397 257 397 65 z "},"7":{"ha":463,"x_min":26,"x_max":431,"o":"m 26 883 l 26 972 l 431 972 l 431 919 l 206 0 l 93 0 l 321 883 l 26 883 z "},"8":{"ha":579,"x_min":68,"x_max":511,"o":"m 493 739 q 390 503 493 549 q 511 249 511 454 q 453 38 511 96 q 289 -21 396 -21 q 125 38 182 -21 q 68 249 68 96 q 188 503 68 458 q 88 739 88 550 q 140 938 88 883 q 290 993 192 993 q 440 938 388 993 q 493 739 493 883 m 401 240 l 401 283 q 372 420 401 382 q 290 458 343 458 q 207 420 236 458 q 178 283 178 382 l 178 240 q 207 103 178 142 q 290 65 236 65 q 372 103 343 65 q 401 240 401 142 m 386 700 l 386 750 q 361 874 386 840 q 290 907 336 907 q 218 874 243 907 q 193 750 193 840 l 193 700 q 218 576 193 610 q 290 543 243 543 q 361 576 336 543 q 386 700 386 610 z "},"9":{"ha":561,"x_min":58,"x_max":493,"o":"m 493 297 q 437 47 493 115 q 281 -21 381 -21 q 129 35 182 -21 q 63 233 76 90 l 160 247 q 197 106 171 143 q 276 69 224 69 q 356 113 328 69 q 385 274 385 157 l 385 454 q 253 403 339 403 q 113 467 168 403 q 58 698 58 531 q 116 929 58 865 q 278 993 174 993 q 438 929 382 993 q 493 696 493 865 l 493 297 m 164 715 l 164 681 q 275 489 164 489 q 354 528 325 489 q 385 669 383 568 l 385 715 q 274 907 385 907 q 164 715 164 907 z "}," ":{"ha":200,"x_min":0,"x_max":0,"o":""},"!":{"ha":278,"x_min":78,"x_max":200,"o":"m 101 232 l 78 972 l 200 972 l 179 232 l 101 232 m 85 0 l 85 128 l 194 128 l 194 0 l 85 0 z "},"\"":{"ha":418,"x_min":67,"x_max":351,"o":"m 86 689 l 67 1028 l 179 1028 l 160 689 l 86 689 m 260 689 l 239 1028 l 351 1028 l 331 689 l 260 689 z "},"#":{"ha":679,"x_min":38,"x_max":642,"o":"m 346 -21 l 393 293 l 224 293 l 176 -21 l 90 -21 l 138 293 l 38 293 l 56 379 l 151 379 l 183 593 l 81 593 l 96 679 l 197 679 l 246 993 l 331 993 l 283 679 l 453 679 l 501 993 l 589 993 l 540 679 l 642 679 l 624 593 l 526 593 l 494 379 l 597 379 l 579 293 l 481 293 l 433 -21 l 346 -21 m 269 593 l 238 379 l 407 379 l 439 593 l 269 593 z "},"$":{"ha":533,"x_min":58,"x_max":476,"o":"m 239 -156 l 239 14 q 115 83 161 22 q 58 285 69 144 l 161 303 q 268 103 171 103 q 371 236 371 103 q 297 392 371 333 l 193 469 q 106 567 136 510 q 75 715 75 624 q 239 957 75 939 l 239 1128 l 313 1128 l 313 956 q 422 894 381 947 q 475 726 463 842 l 369 701 q 272 865 365 865 q 182 729 182 865 q 195 632 182 668 q 247 565 208 596 l 353 485 q 413 435 390 458 q 456 361 435 413 q 476 240 476 310 q 313 15 476 38 l 313 -156 l 239 -156 z "},"%":{"ha":963,"x_min":54,"x_max":908,"o":"m 306 -21 l 560 993 l 639 993 l 385 -21 l 306 -21 m 349 807 l 349 571 q 310 425 349 465 q 201 385 272 385 q 92 425 131 385 q 54 571 54 465 l 54 807 q 92 953 54 913 q 201 993 131 993 q 310 953 272 993 q 349 807 349 913 m 260 558 l 260 819 q 201 925 260 925 q 142 819 142 925 l 142 558 q 201 453 142 453 q 260 558 260 453 m 908 401 l 908 165 q 870 19 908 60 q 761 -21 832 -21 q 652 19 690 -21 q 614 165 614 60 l 614 401 q 652 547 614 507 q 761 588 690 588 q 870 547 832 588 q 908 401 908 507 m 819 153 l 819 414 q 760 519 819 519 q 701 414 701 519 l 701 153 q 760 47 701 47 q 819 153 819 47 z "},"&":{"ha":585,"x_min":36,"x_max":568,"o":"m 36 228 l 36 272 q 72 422 36 371 q 174 499 107 474 q 107 760 107 618 q 300 993 107 993 q 435 937 386 993 q 496 739 483 881 l 397 724 q 368 865 390 828 q 302 903 346 903 q 235 872 258 903 q 213 747 213 840 q 267 553 213 654 l 396 314 q 415 507 410 404 l 507 507 q 461 196 492 303 l 568 0 l 449 0 l 408 74 q 225 -21 347 -21 q 87 33 138 -21 q 36 228 36 88 m 242 69 q 358 163 321 69 l 218 418 q 143 272 143 376 l 143 226 q 169 103 143 136 q 242 69 196 69 z "},"'":{"ha":246,"x_min":67,"x_max":179,"o":"m 86 689 l 67 1028 l 179 1028 l 160 689 l 86 689 z "},"(":{"ha":361,"x_min":58,"x_max":328,"o":"m 108 14 q 97 48 108 14 q 72 206 86 82 q 58 501 58 329 q 72 788 58 672 q 108 967 86 903 q 167 1066 129 1032 q 239 1109 204 1100 q 328 1118 274 1118 l 328 1028 q 276 1022 296 1028 q 233 988 257 1017 q 197 906 210 960 q 168 565 168 779 q 176 242 168 350 q 197 76 185 133 q 233 -12 210 18 q 276 -49 257 -43 q 328 -56 294 -56 l 328 -146 q 239 -137 274 -146 q 167 -91 204 -128 q 108 14 129 -54 z "},")":{"ha":361,"x_min":8,"x_max":278,"o":"m 228 967 q 239 935 228 967 q 264 788 250 903 q 278 501 278 672 q 264 206 278 329 q 228 14 250 82 q 169 -91 207 -54 q 97 -137 132 -128 q 8 -146 63 -146 l 8 -56 q 60 -49 42 -56 q 103 -12 79 -43 q 139 75 126 18 q 168 507 168 210 q 103 989 168 910 q 60 1022 79 1017 q 8 1028 40 1028 l 8 1118 q 97 1109 63 1118 q 169 1066 132 1100 q 228 967 207 1032 z "},"*":{"ha":543,"x_min":67,"x_max":476,"o":"m 429 585 l 308 715 l 314 499 l 229 499 l 233 715 l 114 585 l 67 649 l 207 785 l 67 921 l 114 986 l 233 853 l 229 1072 l 314 1072 l 308 853 l 429 986 l 476 921 l 335 785 l 476 649 l 429 585 z "},"+":{"ha":524,"x_min":78,"x_max":444,"o":"m 78 443 l 78 529 l 221 529 l 221 735 l 303 735 l 303 529 l 444 529 l 444 443 l 303 443 l 303 238 l 221 238 l 221 443 l 78 443 z "},",":{"ha":226,"x_min":58,"x_max":168,"o":"m 58 0 l 58 128 l 168 128 l 168 6 l 114 -167 l 72 -158 l 89 0 l 58 0 z "},"-":{"ha":350,"x_min":42,"x_max":308,"o":"m 42 381 l 42 467 l 308 467 l 308 381 l 42 381 z "},".":{"ha":226,"x_min":58,"x_max":168,"o":"m 58 0 l 58 128 l 168 128 l 168 0 l 58 0 z "},"/":{"ha":403,"x_min":46,"x_max":357,"o":"m 46 -72 l 285 1044 l 357 1044 l 118 -72 l 46 -72 z "},":":{"ha":226,"x_min":58,"x_max":168,"o":"m 58 0 l 58 128 l 168 128 l 168 0 l 58 0 m 58 567 l 58 694 l 168 694 l 168 567 l 58 567 z "},";":{"ha":226,"x_min":58,"x_max":168,"o":"m 58 0 l 58 128 l 168 128 l 168 6 l 114 -167 l 72 -158 l 89 0 l 58 0 m 58 567 l 58 694 l 168 694 l 168 567 l 58 567 z "},"<":{"ha":526,"x_min":78,"x_max":447,"o":"m 78 440 l 78 532 l 447 740 l 447 649 l 175 486 l 447 324 l 447 232 l 78 440 z "},"=":{"ha":524,"x_min":78,"x_max":444,"o":"m 78 582 l 78 668 l 444 668 l 444 582 l 78 582 m 78 304 l 78 390 l 444 390 l 444 304 l 78 304 z "},">":{"ha":526,"x_min":78,"x_max":447,"o":"m 447 532 l 447 440 l 78 232 l 78 324 l 351 486 l 78 649 l 78 740 l 447 532 z "},"?":{"ha":497,"x_min":38,"x_max":429,"o":"m 272 233 l 189 233 q 255 533 189 399 q 321 754 321 668 q 298 872 321 840 q 233 903 275 903 q 167 865 190 903 q 136 724 144 826 l 38 739 q 98 937 49 881 q 238 993 147 993 q 378 942 328 993 q 429 767 429 890 q 351 497 429 644 q 272 233 272 349 m 176 0 l 176 128 l 286 128 l 286 0 l 176 0 z "},"@":{"ha":856,"x_min":68,"x_max":788,"o":"m 788 181 l 514 181 l 499 301 q 375 160 479 160 q 278 208 311 160 q 244 385 244 257 l 244 546 q 278 722 244 674 q 375 771 313 771 q 503 636 481 771 l 524 750 l 593 750 l 593 254 l 731 254 l 731 540 q 643 861 731 775 q 549 920 600 903 q 427 938 497 938 q 306 920 357 938 q 211 861 254 903 q 125 540 125 774 l 125 390 q 211 69 125 157 q 306 10 254 28 q 428 -7 357 -7 q 613 43 546 -7 l 636 -15 q 428 -76 558 -76 q 283 -56 344 -76 q 172 14 222 -36 q 68 390 68 114 l 68 540 q 172 917 68 815 q 283 987 222 967 q 428 1007 344 1007 q 572 987 511 1007 q 683 917 633 967 q 788 540 788 815 l 788 181 m 453 260 q 460 268 453 260 q 479 325 468 275 q 490 485 490 375 q 469 640 490 596 q 408 685 449 685 q 353 563 353 685 l 353 368 q 368 273 353 300 q 410 246 383 246 q 453 260 438 246 z "},"A":{"ha":547,"x_min":22,"x_max":525,"o":"m 414 0 l 371 253 l 175 253 l 133 0 l 22 0 l 200 972 l 347 972 l 525 0 l 414 0 m 274 832 l 190 342 l 356 342 l 274 832 z "},"B":{"ha":531,"x_min":88,"x_max":483,"o":"m 88 0 l 88 972 l 246 972 q 406 914 350 972 q 463 710 463 856 q 344 501 463 540 q 483 278 483 471 q 426 62 483 124 q 268 0 369 0 l 88 0 m 375 251 l 375 289 q 265 463 375 463 l 199 463 l 199 88 l 265 88 q 347 124 318 88 q 375 251 375 160 m 360 699 l 360 732 q 332 852 360 819 q 253 885 304 885 l 199 885 l 199 536 l 253 536 q 360 699 360 536 z "},"C":{"ha":519,"x_min":68,"x_max":482,"o":"m 178 268 q 204 112 178 154 q 279 69 231 69 q 352 106 328 69 q 385 246 376 143 l 482 233 q 419 35 469 92 q 274 -21 368 -21 q 124 47 179 -21 q 68 297 68 115 l 68 675 q 124 925 68 857 q 273 993 179 993 q 416 944 367 993 q 476 771 465 896 l 375 746 q 344 869 367 835 q 276 903 321 903 q 204 859 231 903 q 178 699 178 815 l 178 268 z "},"D":{"ha":564,"x_min":88,"x_max":496,"o":"m 88 0 l 88 972 l 276 972 q 439 905 382 972 q 496 661 496 838 l 496 311 q 439 67 496 135 q 276 0 382 0 l 88 0 m 386 286 l 386 685 q 276 883 386 883 l 199 883 l 199 88 l 276 88 q 386 286 386 88 z "},"E":{"ha":499,"x_min":88,"x_max":440,"o":"m 199 440 l 199 89 l 440 89 l 440 0 l 88 0 l 88 972 l 436 972 l 436 883 l 199 883 l 199 529 l 415 529 l 415 440 l 199 440 z "},"F":{"ha":449,"x_min":88,"x_max":421,"o":"m 199 440 l 199 0 l 88 0 l 88 972 l 421 972 l 421 883 l 199 883 l 199 529 l 400 529 l 400 440 l 199 440 z "},"G":{"ha":567,"x_min":68,"x_max":489,"o":"m 271 426 l 271 515 l 489 515 l 489 1 l 421 1 l 401 92 q 251 -21 360 -21 q 116 47 164 -21 q 68 290 68 114 l 68 675 q 124 925 68 857 q 273 993 179 993 q 416 944 367 993 q 476 771 465 896 l 375 746 q 344 869 367 835 q 276 903 321 903 q 204 859 231 903 q 178 699 178 815 l 178 269 q 203 113 178 156 q 276 69 229 69 q 385 257 382 69 l 385 426 l 271 426 z "},"H":{"ha":606,"x_min":88,"x_max":518,"o":"m 408 0 l 408 440 l 199 440 l 199 0 l 88 0 l 88 972 l 199 972 l 199 529 l 408 529 l 408 972 l 518 972 l 518 0 l 408 0 z "},"I":{"ha":286,"x_min":88,"x_max":199,"o":"m 88 0 l 88 972 l 199 972 l 199 0 l 88 0 z "},"J":{"ha":410,"x_min":14,"x_max":336,"o":"m 114 178 q 134 90 119 113 q 174 67 149 67 q 226 196 226 67 l 226 972 l 336 972 l 336 218 q 168 -21 336 -21 q 67 22 113 -21 q 14 164 22 64 l 114 178 z "},"K":{"ha":529,"x_min":88,"x_max":522,"o":"m 199 0 l 88 0 l 88 972 l 199 972 l 199 561 l 403 972 l 514 972 l 301 554 l 522 0 l 411 0 l 243 438 l 199 350 l 199 0 z "},"L":{"ha":435,"x_min":88,"x_max":414,"o":"m 88 0 l 88 972 l 199 972 l 199 89 l 414 89 l 414 0 l 88 0 z "},"M":{"ha":751,"x_min":88,"x_max":664,"o":"m 196 0 l 88 0 l 88 972 l 257 972 l 375 299 l 494 972 l 664 972 l 664 0 l 556 0 l 556 878 l 438 208 l 314 208 l 196 878 l 196 0 z "},"N":{"ha":625,"x_min":88,"x_max":538,"o":"m 196 0 l 88 0 l 88 972 l 203 972 l 429 261 l 429 972 l 538 972 l 538 0 l 422 0 l 196 710 l 196 0 z "},"O":{"ha":571,"x_min":68,"x_max":503,"o":"m 503 682 l 503 290 q 447 47 503 114 q 285 -21 390 -21 q 124 47 181 -21 q 68 290 68 114 l 68 682 q 124 926 68 858 q 285 993 181 993 q 447 926 390 993 q 503 682 503 858 m 393 269 l 393 703 q 286 903 393 903 q 206 860 235 903 q 178 703 178 817 l 178 269 q 206 113 178 156 q 286 69 235 69 q 393 269 393 69 z "},"P":{"ha":504,"x_min":88,"x_max":476,"o":"m 88 0 l 88 972 l 260 972 q 420 905 364 972 q 476 661 476 838 l 476 654 q 420 411 476 478 q 260 344 364 344 l 199 344 l 199 0 l 88 0 m 367 636 l 367 679 q 260 883 367 883 l 199 883 l 199 432 l 260 432 q 367 636 367 432 z "},"Q":{"ha":571,"x_min":68,"x_max":503,"o":"m 503 682 l 503 360 q 415 85 503 154 l 472 -78 l 372 -78 l 328 51 q 286 49 314 49 q 124 116 181 49 q 68 360 68 183 l 68 682 q 124 926 68 858 q 285 993 181 993 q 447 926 390 993 q 503 682 503 858 m 393 339 l 393 703 q 286 903 393 903 q 206 860 235 903 q 178 703 178 817 l 178 339 q 206 182 178 225 q 286 139 235 139 l 297 139 l 225 353 l 322 353 l 374 203 q 393 339 393 250 z "},"R":{"ha":536,"x_min":88,"x_max":489,"o":"m 88 0 l 88 972 l 260 972 q 419 907 363 972 q 476 672 476 842 l 476 665 q 374 397 476 454 l 489 0 l 375 0 l 267 372 l 199 372 l 199 0 l 88 0 m 367 651 l 367 693 q 338 842 367 800 q 260 883 310 883 l 199 883 l 199 460 l 260 460 q 367 651 367 460 z "},"S":{"ha":553,"x_min":58,"x_max":494,"o":"m 386 218 q 311 389 386 329 l 200 471 q 75 733 75 560 q 130 935 75 878 q 280 993 185 993 q 428 940 375 993 q 492 746 481 886 l 386 722 q 283 900 381 900 q 185 749 185 900 q 199 640 185 682 q 256 565 214 599 l 365 483 q 428 431 404 456 q 473 351 451 406 q 494 221 494 296 q 437 33 494 88 q 281 -21 379 -21 q 126 43 182 -21 q 58 271 71 107 l 163 289 q 197 121 168 171 q 276 71 225 71 q 386 218 386 71 z "},"T":{"ha":415,"x_min":18,"x_max":397,"o":"m 18 883 l 18 972 l 397 972 l 397 883 l 263 883 l 263 0 l 153 0 l 153 883 l 18 883 z "},"U":{"ha":586,"x_min":78,"x_max":508,"o":"m 399 972 l 508 972 l 508 290 q 452 47 508 114 q 293 -21 396 -21 q 134 47 190 -21 q 78 290 78 114 l 78 972 l 188 972 l 188 269 q 215 113 188 157 q 292 69 243 69 q 370 113 342 69 q 399 269 399 157 l 399 972 z "},"V":{"ha":544,"x_min":22,"x_max":522,"o":"m 133 972 l 272 161 l 411 972 l 522 972 l 342 0 l 203 0 l 22 972 l 133 972 z "},"W":{"ha":803,"x_min":26,"x_max":776,"o":"m 517 0 l 401 707 l 286 0 l 172 0 l 26 972 l 138 972 l 238 228 l 360 972 l 446 972 l 564 229 l 665 972 l 776 972 l 631 0 l 517 0 z "},"X":{"ha":529,"x_min":22,"x_max":507,"o":"m 142 972 l 272 624 l 401 972 l 507 972 l 321 494 l 507 0 l 399 0 l 263 360 l 128 0 l 22 0 l 213 493 l 33 972 l 142 972 z "},"Y":{"ha":519,"x_min":22,"x_max":496,"o":"m 314 0 l 206 0 l 206 325 l 22 972 l 131 972 l 260 471 l 388 972 l 496 972 l 314 325 l 314 0 z "},"Z":{"ha":488,"x_min":32,"x_max":456,"o":"m 32 0 l 32 53 l 340 883 l 58 883 l 58 972 l 456 972 l 456 919 l 147 89 l 456 89 l 456 0 l 32 0 z "},"[":{"ha":369,"x_min":88,"x_max":328,"o":"m 88 -139 l 88 1111 l 328 1111 l 328 1022 l 197 1022 l 197 -50 l 328 -50 l 328 -139 l 88 -139 z "},"\\":{"ha":403,"x_min":18,"x_max":329,"o":"m 90 1044 l 329 -72 l 257 -72 l 18 1044 l 90 1044 z "},"]":{"ha":369,"x_min":14,"x_max":254,"o":"m 254 1111 l 254 -139 l 14 -139 l 14 -50 l 144 -50 l 144 1022 l 14 1022 l 14 1111 l 254 1111 z "},"^":{"ha":368,"x_min":29,"x_max":340,"o":"m 183 839 l 115 444 l 29 444 l 138 969 l 232 969 l 340 444 l 254 444 l 183 839 z "},"_":{"ha":457,"x_min":58,"x_max":400,"o":"m 58 -86 l 58 0 l 400 0 l 400 -86 l 58 -86 z "},"`":{"ha":340,"x_min":86,"x_max":315,"o":"m 135 1050 l 315 886 l 285 836 l 86 957 l 135 1050 z "},"a":{"ha":511,"x_min":63,"x_max":433,"o":"m 63 232 q 101 412 63 364 q 213 460 140 460 q 326 404 285 460 l 326 550 q 243 683 326 683 q 108 601 172 683 l 71 679 q 152 744 103 718 q 253 771 201 771 q 433 526 433 771 l 433 0 l 368 0 l 346 90 q 295 7 331 35 q 215 -21 260 -21 q 101 27 140 -21 q 63 207 63 75 l 63 232 m 238 67 q 301 96 278 67 q 326 201 324 125 l 326 239 q 301 353 324 321 q 238 385 278 385 q 168 253 168 385 l 168 199 q 238 67 168 67 z "},"b":{"ha":542,"x_min":88,"x_max":474,"o":"m 189 1028 l 189 660 q 322 771 226 771 q 435 708 396 771 q 474 479 474 646 l 474 271 q 435 42 474 104 q 322 -21 396 -21 q 183 133 213 -21 l 153 0 l 88 0 l 88 1028 l 189 1028 m 189 375 q 205 178 189 250 q 242 85 221 106 q 297 65 263 65 q 372 238 372 65 l 372 513 q 299 685 372 685 q 245 665 267 685 q 207 579 224 646 q 189 394 190 513 l 189 375 z "},"c":{"ha":481,"x_min":68,"x_max":442,"o":"m 442 218 q 382 31 431 83 q 249 -21 333 -21 q 117 38 165 -21 q 68 243 68 97 l 68 479 q 117 708 68 644 q 249 771 165 771 q 381 725 333 771 q 438 560 428 679 l 340 533 q 256 685 335 685 q 194 649 215 685 q 174 499 174 613 l 174 233 q 195 101 174 136 q 257 67 217 67 q 319 101 297 67 q 351 232 342 135 l 442 218 z "},"d":{"ha":544,"x_min":68,"x_max":457,"o":"m 219 -21 q 108 42 147 -21 q 68 271 68 106 l 68 479 q 108 708 68 644 q 219 771 147 771 q 356 651 319 771 l 356 1028 l 457 1028 l 457 0 l 392 0 l 358 144 q 219 -21 331 -21 m 336 177 q 344 213 336 177 q 351 375 351 249 q 335 573 351 501 q 298 665 319 644 q 242 685 276 685 q 171 513 171 685 l 171 238 q 190 103 171 142 q 244 65 210 65 q 300 85 279 65 q 336 177 321 106 z "},"e":{"ha":526,"x_min":68,"x_max":458,"o":"m 456 194 q 399 26 446 74 q 262 -21 351 -21 q 120 42 172 -21 q 68 271 68 106 l 68 479 q 120 708 68 644 q 267 771 172 771 q 410 708 361 771 q 458 479 458 646 l 458 331 l 174 331 l 174 251 q 263 65 174 65 q 329 96 306 65 q 363 210 353 126 l 456 194 m 174 499 l 174 419 l 351 419 l 351 499 q 264 685 351 685 q 174 499 174 685 z "},"f":{"ha":300,"x_min":26,"x_max":331,"o":"m 308 942 q 256 956 285 956 q 192 778 192 956 l 192 750 l 279 750 l 279 664 l 192 664 l 192 0 l 86 0 l 86 664 l 26 664 l 26 750 l 86 750 l 86 757 q 128 985 86 922 q 244 1049 169 1049 q 331 1032 292 1049 l 308 942 z "},"g":{"ha":518,"x_min":26,"x_max":513,"o":"m 513 771 l 513 661 l 431 661 q 454 503 454 601 l 454 490 q 406 279 454 336 q 258 222 358 222 q 188 231 219 222 q 157 161 157 208 q 233 78 157 78 l 319 78 q 492 -97 492 78 q 319 -271 492 -271 l 197 -271 q 26 -96 26 -271 q 107 61 26 24 q 74 157 74 88 q 133 257 74 226 q 65 490 65 314 l 65 503 q 113 714 65 657 q 251 771 160 771 q 389 728 342 771 l 497 771 l 513 771 m 349 465 l 349 528 q 326 657 349 622 q 260 692 303 692 q 194 657 218 692 q 171 528 171 622 l 171 465 q 194 336 171 371 q 260 301 218 301 q 326 336 303 301 q 349 465 349 371 m 328 -8 l 189 -8 q 126 -95 126 -8 q 189 -182 126 -182 l 328 -182 q 390 -95 390 -182 q 328 -8 390 -8 z "},"h":{"ha":553,"x_min":88,"x_max":475,"o":"m 194 0 l 88 0 l 88 1028 l 189 1028 l 189 661 q 326 771 222 771 q 437 707 399 771 q 475 474 475 643 l 475 0 l 368 0 l 368 511 q 300 685 368 685 q 194 388 197 685 l 194 0 z "},"i":{"ha":282,"x_min":83,"x_max":199,"o":"m 88 0 l 88 750 l 194 750 l 194 0 l 88 0 m 83 897 l 83 1028 l 199 1028 l 199 897 l 83 897 z "},"j":{"ha":285,"x_min":-47,"x_max":201,"o":"m -26 -164 q 25 -178 -3 -178 q 90 0 90 -178 l 90 750 l 196 750 l 196 21 q 154 -208 196 -144 q 38 -271 113 -271 q -47 -254 -10 -271 l -26 -164 m 85 897 l 85 1028 l 201 1028 l 201 897 l 85 897 z "},"k":{"ha":499,"x_min":88,"x_max":499,"o":"m 194 0 l 88 0 l 88 1028 l 194 1028 l 194 454 l 364 750 l 475 750 l 293 449 l 499 0 l 383 0 l 231 344 l 194 283 l 194 0 z "},"l":{"ha":282,"x_min":88,"x_max":194,"o":"m 88 0 l 88 1028 l 194 1028 l 194 0 l 88 0 z "},"m":{"ha":815,"x_min":88,"x_max":736,"o":"m 194 0 l 88 0 l 88 750 l 153 750 l 181 632 q 318 771 207 771 q 451 635 424 771 q 589 771 481 771 q 698 707 660 771 q 736 474 736 643 l 736 0 l 629 0 l 629 511 q 564 685 629 685 q 465 388 468 685 l 465 0 l 358 0 l 358 511 q 294 685 358 685 q 194 388 197 685 l 194 0 z "},"n":{"ha":553,"x_min":88,"x_max":475,"o":"m 194 0 l 88 0 l 88 750 l 153 750 l 181 631 q 326 771 210 771 q 437 707 399 771 q 475 474 475 643 l 475 0 l 368 0 l 368 511 q 300 685 368 685 q 194 388 197 685 l 194 0 z "},"o":{"ha":526,"x_min":68,"x_max":458,"o":"m 458 479 l 458 271 q 408 42 458 106 q 263 -21 357 -21 q 119 42 169 -21 q 68 271 68 106 l 68 479 q 119 708 68 644 q 263 771 169 771 q 408 708 357 771 q 458 479 458 644 m 351 251 l 351 499 q 264 685 351 685 q 174 499 174 685 l 174 251 q 264 65 174 65 q 351 251 351 65 z "},"p":{"ha":542,"x_min":88,"x_max":474,"o":"m 88 750 l 153 750 l 181 629 q 322 771 213 771 q 435 708 396 771 q 474 479 474 646 l 474 271 q 435 42 474 104 q 322 -21 396 -21 q 189 110 221 -21 l 189 -250 l 88 -250 l 88 750 m 189 375 q 205 178 189 250 q 242 85 221 106 q 297 65 263 65 q 372 238 372 65 l 372 513 q 299 685 372 685 q 245 665 267 685 q 207 579 224 646 q 189 394 190 513 l 189 375 z "},"q":{"ha":542,"x_min":68,"x_max":453,"o":"m 453 750 l 453 -250 l 351 -250 l 351 110 q 219 -21 318 -21 q 108 42 147 -21 q 68 271 68 106 l 68 479 q 108 708 68 644 q 219 771 147 771 q 360 633 328 771 l 388 750 l 453 750 m 242 685 q 171 513 171 685 l 171 238 q 190 103 171 142 q 249 65 210 65 q 287 76 271 65 q 318 117 303 88 q 351 356 349 175 l 351 394 q 334 579 350 513 q 297 665 318 646 q 242 685 275 685 z "},"r":{"ha":358,"x_min":88,"x_max":347,"o":"m 319 771 l 347 769 l 339 651 q 301 661 319 661 q 194 442 196 661 l 194 0 l 88 0 l 88 750 l 153 750 l 183 622 q 319 771 211 771 z "},"s":{"ha":494,"x_min":58,"x_max":438,"o":"m 335 168 q 276 289 335 247 l 181 357 q 74 567 74 428 q 122 725 74 679 q 251 771 169 771 q 379 728 333 771 q 435 571 425 685 l 339 551 q 253 686 332 686 q 175 576 175 686 q 233 444 175 488 l 325 381 q 380 338 360 357 q 419 276 400 319 q 438 174 438 232 q 388 23 438 67 q 252 -21 338 -21 q 118 30 167 -21 q 58 208 69 81 l 157 226 q 185 100 163 136 q 249 64 208 64 q 335 168 335 64 z "},"t":{"ha":332,"x_min":28,"x_max":319,"o":"m 28 664 l 28 750 l 101 750 l 139 935 l 203 935 l 203 750 l 301 750 l 301 664 l 203 664 l 203 142 q 243 68 203 68 q 299 90 269 68 l 319 8 q 222 -21 272 -21 q 97 164 97 -21 l 97 664 l 28 664 z "},"u":{"ha":543,"x_min":78,"x_max":454,"o":"m 349 750 l 454 750 l 454 0 l 389 0 l 367 92 q 232 -21 335 -21 q 117 26 156 -21 q 78 207 78 74 l 78 750 l 183 750 l 183 199 q 202 94 183 122 q 258 67 221 67 q 349 201 343 67 l 349 750 z "},"v":{"ha":475,"x_min":22,"x_max":453,"o":"m 131 750 l 238 168 l 346 750 l 453 750 l 296 0 l 181 0 l 22 750 l 131 750 z "},"w":{"ha":756,"x_min":33,"x_max":722,"o":"m 478 0 l 378 583 l 278 0 l 171 0 l 33 750 l 139 750 l 229 189 l 324 750 l 431 750 l 528 190 l 618 750 l 722 750 l 586 0 l 478 0 z "},"x":{"ha":483,"x_min":24,"x_max":461,"o":"m 144 750 l 253 493 l 346 750 l 456 750 l 301 378 l 461 0 l 343 0 l 231 264 l 135 0 l 24 0 l 182 381 l 26 750 l 144 750 z "},"y":{"ha":485,"x_min":-10,"x_max":461,"o":"m 269 -114 q 213 -231 253 -190 q 115 -271 174 -271 q -10 -208 56 -271 l 28 -136 q 117 -182 79 -182 q 194 -68 175 -182 l 206 -4 l 22 750 l 129 750 l 249 206 l 353 750 l 461 750 l 269 -114 z "},"z":{"ha":444,"x_min":42,"x_max":406,"o":"m 42 0 l 42 57 l 288 664 l 57 664 l 57 750 l 404 750 l 404 693 l 154 86 l 406 86 l 406 0 l 42 0 z "},"{":{"ha":392,"x_min":28,"x_max":361,"o":"m 118 147 l 118 281 q 101 406 118 365 q 32 447 83 447 q 28 447 29 447 l 28 526 q 101 568 83 526 q 118 693 118 610 l 118 826 q 251 1115 118 1086 l 289 1119 q 361 1101 331 1119 l 340 1011 q 293 1025 317 1025 q 240 988 256 1025 q 225 856 225 950 l 225 743 q 161 486 225 557 q 225 231 225 415 l 225 118 q 240 -14 225 24 q 293 -51 256 -51 q 340 -37 317 -51 l 361 -128 q 289 -146 331 -146 l 251 -142 q 118 147 118 -112 z "},"|":{"ha":325,"x_min":126,"x_max":199,"o":"m 126 -72 l 126 1044 l 199 1044 l 199 -72 l 126 -72 z "},"}":{"ha":392,"x_min":6,"x_max":339,"o":"m 74 -51 q 126 -14 111 -51 q 142 118 142 24 l 142 231 q 206 486 142 415 q 142 743 142 557 l 142 856 q 126 988 142 950 q 74 1025 111 1025 q 26 1011 50 1025 l 6 1101 q 78 1119 36 1119 l 115 1115 q 249 826 249 1086 l 249 693 q 266 568 249 610 q 339 526 283 526 l 339 447 q 335 447 338 447 q 266 406 283 447 q 249 281 249 365 l 249 147 q 115 -142 249 -112 l 78 -146 q 6 -128 36 -146 l 26 -37 q 74 -51 50 -51 z "},"~":{"ha":524,"x_min":78,"x_max":444,"o":"m 78 529 q 151 506 113 506 q 260 528 190 506 q 371 551 331 551 q 444 529 411 551 l 444 443 q 369 467 408 467 q 261 442 331 467 q 152 418 192 418 q 78 443 113 418 l 78 529 z "}," ":{"ha":200,"x_min":0,"x_max":0,"o":""},"¡":{"ha":278,"x_min":78,"x_max":200,"o":"m 78 -222 l 101 518 l 179 518 l 200 -222 l 78 -222 m 85 622 l 85 750 l 194 750 l 194 622 l 85 622 z "},"¢":{"ha":488,"x_min":68,"x_max":450,"o":"m 222 -21 l 222 119 q 68 382 68 139 l 68 563 q 108 776 68 711 q 222 851 149 842 l 222 993 l 294 993 l 294 851 q 444 643 428 835 l 349 617 q 260 768 340 768 q 195 732 217 768 q 174 582 174 696 l 174 372 q 196 240 174 275 q 260 206 218 206 q 326 240 303 206 q 357 371 349 275 l 450 357 q 294 121 431 142 l 294 -21 l 222 -21 z "},"£":{"ha":511,"x_min":42,"x_max":489,"o":"m 207 699 l 207 511 l 378 511 l 378 439 l 207 439 l 207 89 l 489 89 l 489 0 l 57 0 l 57 46 l 96 60 l 96 439 l 42 439 l 42 511 l 96 511 l 96 675 q 149 924 96 856 q 290 993 201 993 q 426 944 379 993 q 485 771 474 896 l 383 746 q 356 869 376 836 q 295 903 336 903 q 231 859 254 903 q 207 699 207 815 z "},"¥":{"ha":539,"x_min":22,"x_max":515,"o":"m 474 506 l 474 433 l 358 433 l 326 325 l 326 297 l 474 297 l 474 225 l 326 225 l 326 0 l 210 0 l 210 225 l 64 225 l 64 297 l 210 297 l 210 325 l 178 433 l 64 433 l 64 506 l 157 506 l 22 972 l 138 972 l 268 481 l 400 972 l 515 972 l 379 506 l 474 506 z "},"¦":{"ha":325,"x_min":126,"x_max":199,"o":"m 126 622 l 126 1044 l 199 1044 l 199 622 l 126 622 m 126 -72 l 126 350 l 199 350 l 199 -72 l 126 -72 z "},"§":{"ha":472,"x_min":58,"x_max":415,"o":"m 315 -32 q 258 100 315 53 l 172 165 q 72 374 72 239 q 138 556 72 508 q 74 738 74 622 q 119 900 74 853 q 242 947 165 947 q 363 908 319 947 q 415 763 407 868 l 321 742 q 243 865 315 865 q 174 747 174 865 q 185 666 174 697 q 226 610 196 635 l 310 544 q 360 501 342 519 q 397 438 379 482 q 415 335 415 393 q 338 158 415 201 q 413 -24 413 89 q 365 -181 413 -136 q 238 -225 318 -225 q 112 -179 157 -225 q 58 -15 67 -133 l 150 0 q 232 -144 160 -144 q 315 -32 315 -144 m 268 214 q 315 325 315 235 q 261 460 315 415 l 204 501 q 169 386 169 471 q 181 306 169 336 q 222 250 192 276 l 268 214 z "},"¨":{"ha":456,"x_min":75,"x_max":381,"o":"m 75 897 l 75 1028 l 188 1028 l 188 897 l 75 897 m 269 897 l 269 1028 l 381 1028 l 381 897 l 269 897 z "},"©":{"ha":732,"x_min":78,"x_max":654,"o":"m 303 604 q 318 506 303 533 q 363 479 333 479 q 409 503 393 479 q 431 592 425 526 l 500 583 q 458 454 492 492 q 361 417 424 417 q 263 461 299 417 q 226 622 226 506 l 226 843 q 263 1004 226 960 q 360 1049 299 1049 q 453 1017 421 1049 q 494 903 486 985 l 422 885 q 403 965 417 943 q 361 986 389 986 q 318 958 333 986 q 303 857 303 931 l 303 604 m 654 792 l 654 672 q 579 379 654 460 q 365 299 504 299 q 152 379 226 299 q 78 672 78 460 l 78 792 q 152 1085 78 1004 q 365 1165 226 1165 q 579 1085 504 1165 q 654 792 654 1004 m 608 672 l 608 792 q 545 1041 608 972 q 365 1110 482 1110 q 186 1041 249 1110 q 124 792 124 972 l 124 672 q 186 423 124 492 q 365 354 249 354 q 545 423 482 354 q 608 672 608 492 z "},"ª":{"ha":388,"x_min":56,"x_max":322,"o":"m 56 615 q 83 740 56 707 q 160 774 110 774 q 238 738 210 774 l 238 815 q 182 924 238 924 q 90 868 136 924 l 63 928 q 193 993 117 993 q 322 808 322 993 l 322 453 l 269 453 l 253 515 q 158 439 229 439 q 83 472 110 439 q 56 597 56 506 l 56 615 m 238 607 q 181 715 238 715 q 139 631 139 715 l 139 592 q 181 506 139 506 q 238 594 233 506 l 238 607 z "},"«":{"ha":474,"x_min":44,"x_max":429,"o":"m 44 399 l 44 490 l 190 699 l 229 663 l 135 444 l 229 226 l 190 190 l 44 399 m 244 399 l 244 490 l 390 699 l 429 663 l 335 444 l 429 226 l 390 190 l 244 399 z "},"¬":{"ha":524,"x_min":78,"x_max":444,"o":"m 78 443 l 78 529 l 444 529 l 444 242 l 367 242 l 367 443 l 78 443 z "},"®":{"ha":732,"x_min":78,"x_max":654,"o":"m 654 792 l 654 672 q 579 379 654 460 q 365 299 504 299 q 152 379 226 299 q 78 672 78 460 l 78 792 q 152 1085 78 1004 q 365 1165 226 1165 q 579 1085 504 1165 q 654 792 654 1004 m 608 672 l 608 792 q 545 1041 608 972 q 365 1110 482 1110 q 186 1041 249 1110 q 124 792 124 972 l 124 672 q 186 423 124 492 q 365 354 249 354 q 545 423 482 354 q 608 672 608 492 m 242 431 l 242 1035 l 358 1035 q 463 996 426 1035 q 500 856 500 957 l 500 844 q 432 685 500 717 l 508 431 l 428 431 l 357 671 l 318 671 l 318 431 l 242 431 m 424 836 l 424 867 q 358 974 424 974 l 318 974 l 318 731 l 358 731 q 424 836 424 731 z "},"¯":{"ha":351,"x_min":44,"x_max":308,"o":"m 44 892 l 44 983 l 308 983 l 308 892 l 44 892 z "},"°":{"ha":446,"x_min":57,"x_max":389,"o":"m 389 789 l 389 643 q 346 483 389 526 q 223 439 303 439 q 100 483 143 439 q 57 643 57 526 l 57 789 q 100 949 57 904 q 223 993 143 993 q 346 949 303 993 q 389 789 389 904 m 303 629 l 303 801 q 223 925 303 925 q 143 801 143 925 l 143 629 q 164 533 143 560 q 224 507 185 507 q 303 629 303 507 z "},"±":{"ha":524,"x_min":78,"x_max":444,"o":"m 78 443 l 78 529 l 221 529 l 221 735 l 303 735 l 303 529 l 444 529 l 444 443 l 303 443 l 303 238 l 221 238 l 221 443 l 78 443 m 78 0 l 78 86 l 444 86 l 444 0 l 78 0 z "},"²":{"ha":378,"x_min":49,"x_max":329,"o":"m 50 849 q 94 972 58 938 q 193 1006 129 1006 q 293 974 257 1006 q 329 863 329 942 q 275 701 329 783 l 128 478 l 325 478 l 325 410 l 49 410 l 49 451 q 118 621 49 526 l 213 757 q 243 858 243 810 q 190 939 243 939 q 149 917 164 939 q 131 838 135 896 l 50 849 z "},"³":{"ha":383,"x_min":43,"x_max":329,"o":"m 181 457 q 240 543 240 457 l 240 569 q 225 647 240 628 q 178 665 210 665 l 135 665 l 135 728 l 183 728 q 236 813 236 728 l 236 843 q 185 931 236 931 q 143 909 157 931 q 125 829 129 888 l 44 840 q 87 963 51 928 q 188 997 122 997 q 287 962 253 997 q 321 835 321 926 q 278 707 321 743 q 329 567 329 669 q 290 426 329 464 q 184 389 250 389 q 85 423 118 389 q 43 546 51 457 l 122 560 q 142 479 128 501 q 181 457 156 457 z "},"´":{"ha":340,"x_min":86,"x_max":315,"o":"m 86 886 l 267 1050 l 315 957 l 117 836 l 86 886 z "},"µ":{"ha":553,"x_min":88,"x_max":465,"o":"m 360 750 l 465 750 l 465 0 l 400 0 l 379 86 q 276 -21 356 -21 q 176 74 203 -21 l 156 -250 l 88 -250 l 88 750 l 194 750 l 194 251 q 215 106 194 146 q 272 67 235 67 q 333 102 308 67 q 360 211 357 138 l 360 750 z "},"¶":{"ha":479,"x_min":65,"x_max":392,"o":"m 392 972 l 392 0 l 281 0 l 281 606 l 65 606 l 65 972 l 392 972 z "},"·":{"ha":226,"x_min":58,"x_max":168,"o":"m 58 361 l 58 489 l 168 489 l 168 361 l 58 361 z "},"¸":{"ha":253,"x_min":32,"x_max":208,"o":"m 208 -169 q 117 -271 208 -271 q 32 -178 42 -271 l 89 -167 q 98 -205 92 -196 q 117 -214 104 -214 q 143 -172 143 -214 l 143 -158 q 132 -124 143 -139 q 82 -99 121 -110 l 96 0 l 139 0 l 132 -68 q 208 -169 208 -90 z "},"¹":{"ha":246,"x_min":15,"x_max":181,"o":"m 181 993 l 181 410 l 93 410 l 93 908 l 15 908 l 15 957 l 124 993 l 181 993 z "},"º":{"ha":394,"x_min":57,"x_max":338,"o":"m 338 789 l 338 643 q 301 483 338 526 q 198 439 265 439 q 94 483 131 439 q 57 643 57 526 l 57 789 q 94 949 57 904 q 198 993 131 993 q 301 949 265 993 q 338 789 338 904 m 253 629 l 253 801 q 198 925 253 925 q 143 801 143 925 l 143 629 q 198 507 143 507 q 253 629 253 507 z "},"»":{"ha":474,"x_min":17,"x_max":401,"o":"m 401 490 l 401 399 l 256 190 l 217 226 l 311 444 l 217 663 l 256 699 l 401 490 m 201 490 l 201 399 l 56 190 l 17 226 l 111 444 l 17 663 l 56 699 l 201 490 z "},"¼":{"ha":963,"x_min":71,"x_max":872,"o":"m 272 -21 l 526 993 l 606 993 l 351 -21 l 272 -21 m 236 993 l 236 410 l 149 410 l 149 908 l 71 908 l 71 957 l 179 993 l 236 993 m 751 0 l 751 129 l 554 129 l 554 175 l 688 583 l 839 583 l 839 199 l 872 199 l 872 129 l 839 129 l 839 0 l 751 0 m 751 199 l 751 525 l 646 199 l 751 199 z "},"½":{"ha":963,"x_min":82,"x_max":875,"o":"m 272 -21 l 526 993 l 606 993 l 351 -21 l 272 -21 m 247 993 l 247 410 l 160 410 l 160 908 l 82 908 l 82 957 l 190 993 l 247 993 m 596 439 q 640 562 604 528 q 739 596 675 596 q 839 564 803 596 q 875 453 875 532 q 821 292 875 374 l 674 68 l 871 68 l 871 0 l 594 0 l 594 42 q 664 211 594 117 l 758 347 q 789 449 789 400 q 736 529 789 529 q 695 508 710 529 q 676 428 681 486 l 596 439 z "},"¾":{"ha":963,"x_min":74,"x_max":886,"o":"m 317 -21 l 571 993 l 650 993 l 396 -21 l 317 -21 m 211 457 q 271 543 271 457 l 271 569 q 256 647 271 628 q 208 665 240 665 l 165 665 l 165 728 l 214 728 q 267 813 267 728 l 267 843 q 215 931 267 931 q 174 909 188 931 q 156 829 160 888 l 75 840 q 117 963 82 928 q 218 997 153 997 q 317 962 283 997 q 351 835 351 926 q 308 707 351 743 q 360 567 360 669 q 320 426 360 464 q 215 389 281 389 q 115 423 149 389 q 74 546 82 457 l 153 560 q 172 479 158 501 q 211 457 186 457 m 765 0 l 765 129 l 568 129 l 568 175 l 701 583 l 853 583 l 853 199 l 886 199 l 886 129 l 853 129 l 853 0 l 765 0 m 765 199 l 765 525 l 660 199 l 765 199 z "},"¿":{"ha":499,"x_min":42,"x_max":433,"o":"m 199 517 l 282 517 q 216 217 282 351 q 150 -4 150 82 q 173 -122 150 -90 q 238 -153 196 -153 q 303 -115 281 -153 q 335 26 326 -76 l 433 11 q 373 -187 422 -131 q 233 -243 324 -243 q 92 -192 143 -243 q 42 -17 42 -140 q 120 253 42 106 q 199 517 199 401 m 294 750 l 294 622 l 185 622 l 185 750 l 294 750 z "},"À":{"ha":547,"x_min":22,"x_max":525,"o":"m 414 0 l 371 253 l 175 253 l 133 0 l 22 0 l 200 972 l 347 972 l 525 0 l 414 0 m 274 832 l 190 342 l 356 342 l 274 832 m 210 1272 l 390 1108 l 360 1058 l 161 1179 l 210 1272 z "},"Á":{"ha":547,"x_min":22,"x_max":525,"o":"m 414 0 l 371 253 l 175 253 l 133 0 l 22 0 l 200 972 l 347 972 l 525 0 l 414 0 m 274 832 l 190 342 l 356 342 l 274 832 m 161 1108 l 342 1272 l 390 1179 l 192 1058 l 161 1108 z "},"Â":{"ha":547,"x_min":22,"x_max":525,"o":"m 414 0 l 371 253 l 175 253 l 133 0 l 22 0 l 200 972 l 347 972 l 525 0 l 414 0 m 274 832 l 190 342 l 356 342 l 274 832 m 286 1264 l 414 1103 l 381 1056 l 274 1153 l 167 1056 l 135 1103 l 260 1264 l 286 1264 z "},"Ã":{"ha":547,"x_min":22,"x_max":525,"o":"m 414 0 l 371 253 l 175 253 l 133 0 l 22 0 l 200 972 l 347 972 l 525 0 l 414 0 m 274 832 l 190 342 l 356 342 l 274 832 m 324 1096 q 269 1116 304 1096 q 217 1136 233 1136 q 154 1093 188 1136 l 122 1146 q 224 1233 168 1233 q 278 1214 243 1233 q 331 1194 314 1194 q 392 1236 361 1194 l 425 1183 q 324 1096 374 1096 z "},"Ä":{"ha":547,"x_min":22,"x_max":525,"o":"m 414 0 l 371 253 l 175 253 l 133 0 l 22 0 l 200 972 l 347 972 l 525 0 l 414 0 m 274 832 l 190 342 l 356 342 l 274 832 m 122 1119 l 122 1250 l 235 1250 l 235 1119 l 122 1119 m 317 1119 l 317 1250 l 428 1250 l 428 1119 l 317 1119 z "},"Å":{"ha":547,"x_min":22,"x_max":525,"o":"m 414 0 l 371 253 l 175 253 l 133 0 l 22 0 l 200 972 l 347 972 l 525 0 l 414 0 m 274 832 l 190 342 l 356 342 l 274 832 m 381 1190 l 381 1171 q 353 1065 381 1093 q 275 1036 325 1036 q 197 1065 225 1036 q 169 1171 169 1093 l 169 1190 q 197 1297 169 1268 q 275 1325 225 1325 q 353 1297 325 1325 q 381 1190 381 1268 m 313 1163 l 313 1199 q 275 1267 313 1267 q 238 1199 238 1267 l 238 1163 q 275 1094 238 1094 q 313 1163 313 1094 z "},"Æ":{"ha":821,"x_min":-12,"x_max":763,"o":"m 408 0 l 408 415 l 250 415 l 106 0 l -12 0 l 328 972 l 758 972 l 758 883 l 518 883 l 518 504 l 738 504 l 738 415 l 518 415 l 518 89 l 763 89 l 763 0 l 408 0 m 408 504 l 408 868 l 281 504 l 408 504 z "},"Ç":{"ha":519,"x_min":68,"x_max":482,"o":"m 358 -169 q 267 -271 358 -271 q 182 -178 192 -271 l 239 -167 q 248 -205 242 -196 q 267 -214 254 -214 q 293 -172 293 -214 l 293 -158 q 282 -124 293 -139 q 232 -99 271 -110 l 243 -18 q 113 63 158 -8 q 68 297 68 133 l 68 675 q 124 925 68 857 q 273 993 179 993 q 416 944 367 993 q 476 771 465 896 l 375 746 q 344 869 367 835 q 276 903 321 903 q 204 859 231 903 q 178 699 178 815 l 178 268 q 204 112 178 154 q 279 69 231 69 q 352 106 328 69 q 385 246 376 143 l 482 233 q 420 36 469 92 q 286 -21 371 -19 l 282 -68 q 358 -169 358 -90 z "},"È":{"ha":499,"x_min":88,"x_max":440,"o":"m 199 440 l 199 89 l 440 89 l 440 0 l 88 0 l 88 972 l 436 972 l 436 883 l 199 883 l 199 529 l 415 529 l 415 440 l 199 440 m 185 1272 l 365 1108 l 335 1058 l 136 1179 l 185 1272 z "},"É":{"ha":499,"x_min":88,"x_max":440,"o":"m 199 440 l 199 89 l 440 89 l 440 0 l 88 0 l 88 972 l 436 972 l 436 883 l 199 883 l 199 529 l 415 529 l 415 440 l 199 440 m 167 1108 l 347 1272 l 396 1179 l 197 1058 l 167 1108 z "},"Ê":{"ha":499,"x_min":88,"x_max":440,"o":"m 199 440 l 199 89 l 440 89 l 440 0 l 88 0 l 88 972 l 436 972 l 436 883 l 199 883 l 199 529 l 415 529 l 415 440 l 199 440 m 282 1264 l 410 1103 l 376 1056 l 269 1153 l 163 1056 l 131 1103 l 256 1264 l 282 1264 z "},"Ë":{"ha":499,"x_min":88,"x_max":440,"o":"m 199 440 l 199 89 l 440 89 l 440 0 l 88 0 l 88 972 l 436 972 l 436 883 l 199 883 l 199 529 l 415 529 l 415 440 l 199 440 m 97 1119 l 97 1250 l 210 1250 l 210 1119 l 97 1119 m 292 1119 l 292 1250 l 403 1250 l 403 1119 l 292 1119 z "},"Ì":{"ha":286,"x_min":29,"x_max":258,"o":"m 88 0 l 88 972 l 199 972 l 199 0 l 88 0 m 78 1272 l 258 1108 l 228 1058 l 29 1179 l 78 1272 z "},"Í":{"ha":286,"x_min":29,"x_max":258,"o":"m 88 0 l 88 972 l 199 972 l 199 0 l 88 0 m 29 1108 l 210 1272 l 258 1179 l 60 1058 l 29 1108 z "},"Î":{"ha":286,"x_min":4,"x_max":283,"o":"m 88 0 l 88 972 l 199 972 l 199 0 l 88 0 m 156 1264 l 283 1103 l 250 1056 l 143 1153 l 36 1056 l 4 1103 l 129 1264 l 156 1264 z "},"Ï":{"ha":286,"x_min":-8,"x_max":297,"o":"m 88 0 l 88 972 l 199 972 l 199 0 l 88 0 m -8 1119 l -8 1250 l 104 1250 l 104 1119 l -8 1119 m 186 1119 l 186 1250 l 297 1250 l 297 1119 l 186 1119 z "},"Ð":{"ha":564,"x_min":22,"x_max":496,"o":"m 22 450 l 22 522 l 88 522 l 88 972 l 276 972 q 439 905 382 972 q 496 661 496 838 l 496 311 q 439 67 496 135 q 276 0 382 0 l 88 0 l 88 450 l 22 450 m 386 286 l 386 685 q 276 883 386 883 l 199 883 l 199 522 l 307 522 l 307 450 l 199 450 l 199 88 l 276 88 q 386 286 386 88 z "},"Ñ":{"ha":625,"x_min":88,"x_max":538,"o":"m 196 0 l 88 0 l 88 972 l 203 972 l 429 261 l 429 972 l 538 972 l 538 0 l 422 0 l 196 710 l 196 0 m 364 1096 q 309 1116 344 1096 q 257 1136 274 1136 q 194 1093 228 1136 l 163 1146 q 264 1233 208 1233 q 319 1214 283 1233 q 371 1194 354 1194 q 432 1236 401 1194 l 465 1183 q 364 1096 414 1096 z "},"Ò":{"ha":571,"x_min":68,"x_max":503,"o":"m 503 682 l 503 290 q 447 47 503 114 q 285 -21 390 -21 q 124 47 181 -21 q 68 290 68 114 l 68 682 q 124 926 68 858 q 285 993 181 993 q 447 926 390 993 q 503 682 503 858 m 393 269 l 393 703 q 286 903 393 903 q 206 860 235 903 q 178 703 178 817 l 178 269 q 206 113 178 156 q 286 69 235 69 q 393 269 393 69 m 221 1272 l 401 1108 l 371 1058 l 172 1179 l 221 1272 z "},"Ó":{"ha":571,"x_min":68,"x_max":503,"o":"m 503 682 l 503 290 q 447 47 503 114 q 285 -21 390 -21 q 124 47 181 -21 q 68 290 68 114 l 68 682 q 124 926 68 858 q 285 993 181 993 q 447 926 390 993 q 503 682 503 858 m 393 269 l 393 703 q 286 903 393 903 q 206 860 235 903 q 178 703 178 817 l 178 269 q 206 113 178 156 q 286 69 235 69 q 393 269 393 69 m 172 1108 l 353 1272 l 401 1179 l 203 1058 l 172 1108 z "},"Ô":{"ha":571,"x_min":68,"x_max":503,"o":"m 503 682 l 503 290 q 447 47 503 114 q 285 -21 390 -21 q 124 47 181 -21 q 68 290 68 114 l 68 682 q 124 926 68 858 q 285 993 181 993 q 447 926 390 993 q 503 682 503 858 m 393 269 l 393 703 q 286 903 393 903 q 206 860 235 903 q 178 703 178 817 l 178 269 q 206 113 178 156 q 286 69 235 69 q 393 269 393 69 m 299 1264 l 426 1103 l 393 1056 l 286 1153 l 179 1056 l 147 1103 l 272 1264 l 299 1264 z "},"Õ":{"ha":571,"x_min":68,"x_max":503,"o":"m 503 682 l 503 290 q 447 47 503 114 q 285 -21 390 -21 q 124 47 181 -21 q 68 290 68 114 l 68 682 q 124 926 68 858 q 285 993 181 993 q 447 926 390 993 q 503 682 503 858 m 393 269 l 393 703 q 286 903 393 903 q 206 860 235 903 q 178 703 178 817 l 178 269 q 206 113 178 156 q 286 69 235 69 q 393 269 393 69 m 336 1096 q 281 1116 317 1096 q 229 1136 246 1136 q 167 1093 200 1136 l 135 1146 q 236 1233 181 1233 q 291 1214 256 1233 q 343 1194 326 1194 q 404 1236 374 1194 l 438 1183 q 336 1096 386 1096 z "},"Ö":{"ha":571,"x_min":68,"x_max":503,"o":"m 503 682 l 503 290 q 447 47 503 114 q 285 -21 390 -21 q 124 47 181 -21 q 68 290 68 114 l 68 682 q 124 926 68 858 q 285 993 181 993 q 447 926 390 993 q 503 682 503 858 m 393 269 l 393 703 q 286 903 393 903 q 206 860 235 903 q 178 703 178 817 l 178 269 q 206 113 178 156 q 286 69 235 69 q 393 269 393 69 m 133 1119 l 133 1250 l 246 1250 l 246 1119 l 133 1119 m 328 1119 l 328 1250 l 439 1250 l 439 1119 l 328 1119 z "},"×":{"ha":522,"x_min":85,"x_max":438,"o":"m 140 254 l 85 315 l 211 486 l 85 657 l 140 718 l 261 554 l 382 718 l 438 657 l 311 486 l 438 315 l 382 254 l 261 418 l 140 254 z "},"Ø":{"ha":571,"x_min":68,"x_max":503,"o":"m 68 290 l 68 682 q 124 926 68 858 q 286 993 181 993 q 356 985 325 993 l 369 1044 l 442 1044 l 421 951 q 503 682 503 881 l 503 290 q 447 47 503 114 q 286 -21 390 -21 q 215 -12 247 -21 l 203 -72 l 131 -72 l 150 19 q 68 290 68 86 m 178 269 q 183 179 178 213 l 336 889 q 286 903 314 903 q 206 860 235 903 q 178 703 178 817 l 178 269 m 393 269 l 393 703 q 386 789 393 750 l 235 82 q 286 69 254 69 q 393 269 393 69 z "},"Ù":{"ha":586,"x_min":78,"x_max":508,"o":"m 399 972 l 508 972 l 508 290 q 452 47 508 114 q 293 -21 396 -21 q 134 47 190 -21 q 78 290 78 114 l 78 972 l 188 972 l 188 269 q 215 113 188 157 q 292 69 243 69 q 370 113 342 69 q 399 269 399 157 l 399 972 m 229 1272 l 410 1108 l 379 1058 l 181 1179 l 229 1272 z "},"Ú":{"ha":586,"x_min":78,"x_max":508,"o":"m 399 972 l 508 972 l 508 290 q 452 47 508 114 q 293 -21 396 -21 q 134 47 190 -21 q 78 290 78 114 l 78 972 l 188 972 l 188 269 q 215 113 188 157 q 292 69 243 69 q 370 113 342 69 q 399 269 399 157 l 399 972 m 181 1108 l 361 1272 l 410 1179 l 211 1058 l 181 1108 z "},"Û":{"ha":586,"x_min":78,"x_max":508,"o":"m 399 972 l 508 972 l 508 290 q 452 47 508 114 q 293 -21 396 -21 q 134 47 190 -21 q 78 290 78 114 l 78 972 l 188 972 l 188 269 q 215 113 188 157 q 292 69 243 69 q 370 113 342 69 q 399 269 399 157 l 399 972 m 306 1264 l 433 1103 l 400 1056 l 293 1153 l 186 1056 l 154 1103 l 279 1264 l 306 1264 z "},"Ü":{"ha":586,"x_min":78,"x_max":508,"o":"m 399 972 l 508 972 l 508 290 q 452 47 508 114 q 293 -21 396 -21 q 134 47 190 -21 q 78 290 78 114 l 78 972 l 188 972 l 188 269 q 215 113 188 157 q 292 69 243 69 q 370 113 342 69 q 399 269 399 157 l 399 972 m 139 1119 l 139 1250 l 251 1250 l 251 1119 l 139 1119 m 333 1119 l 333 1250 l 444 1250 l 444 1119 l 333 1119 z "},"Ý":{"ha":519,"x_min":22,"x_max":496,"o":"m 314 0 l 206 0 l 206 325 l 22 972 l 131 972 l 260 471 l 388 972 l 496 972 l 314 325 l 314 0 m 176 1108 l 357 1272 l 406 1179 l 207 1058 l 176 1108 z "},"Þ":{"ha":504,"x_min":88,"x_max":476,"o":"m 88 0 l 88 972 l 199 972 l 199 800 l 260 800 q 420 733 364 800 q 476 489 476 665 l 476 482 q 420 239 476 306 q 260 172 364 172 l 199 172 l 199 0 l 88 0 m 367 464 l 367 507 q 260 711 367 711 l 199 711 l 199 260 l 260 260 q 367 464 367 260 z "},"ß":{"ha":567,"x_min":78,"x_max":535,"o":"m 224 176 l 308 176 q 368 64 308 64 q 419 92 403 64 q 435 199 435 119 q 411 334 435 279 q 325 449 388 389 l 263 507 l 260 507 l 260 553 q 333 618 313 574 q 354 743 354 663 q 269 907 354 907 q 206 862 225 907 q 188 700 188 817 l 188 0 l 78 0 l 78 701 q 126 928 78 863 q 269 993 174 993 q 414 934 364 993 q 464 743 464 875 q 357 533 464 589 l 401 493 q 505 357 475 424 q 535 188 535 290 q 490 33 535 86 q 375 -21 444 -21 q 224 176 224 -21 z "},"à":{"ha":511,"x_min":63,"x_max":433,"o":"m 63 232 q 101 412 63 364 q 213 460 140 460 q 326 404 285 460 l 326 550 q 243 683 326 683 q 108 601 172 683 l 71 679 q 152 744 103 718 q 253 771 201 771 q 433 526 433 771 l 433 0 l 368 0 l 346 90 q 295 7 331 35 q 215 -21 260 -21 q 101 27 140 -21 q 63 207 63 75 l 63 232 m 238 67 q 301 96 278 67 q 326 201 324 125 l 326 239 q 301 353 324 321 q 238 385 278 385 q 168 253 168 385 l 168 199 q 238 67 168 67 m 190 1050 l 371 886 l 340 836 l 142 957 l 190 1050 z "},"á":{"ha":511,"x_min":63,"x_max":433,"o":"m 63 232 q 101 412 63 364 q 213 460 140 460 q 326 404 285 460 l 326 550 q 243 683 326 683 q 108 601 172 683 l 71 679 q 152 744 103 718 q 253 771 201 771 q 433 526 433 771 l 433 0 l 368 0 l 346 90 q 295 7 331 35 q 215 -21 260 -21 q 101 27 140 -21 q 63 207 63 75 l 63 232 m 238 67 q 301 96 278 67 q 326 201 324 125 l 326 239 q 301 353 324 321 q 238 385 278 385 q 168 253 168 385 l 168 199 q 238 67 168 67 m 172 886 l 353 1050 l 401 957 l 203 836 l 172 886 z "},"â":{"ha":511,"x_min":63,"x_max":433,"o":"m 63 232 q 101 412 63 364 q 213 460 140 460 q 326 404 285 460 l 326 550 q 243 683 326 683 q 108 601 172 683 l 71 679 q 152 744 103 718 q 253 771 201 771 q 433 526 433 771 l 433 0 l 368 0 l 346 90 q 295 7 331 35 q 215 -21 260 -21 q 101 27 140 -21 q 63 207 63 75 l 63 232 m 238 67 q 301 96 278 67 q 326 201 324 125 l 326 239 q 301 353 324 321 q 238 385 278 385 q 168 253 168 385 l 168 199 q 238 67 168 67 m 268 1042 l 396 881 l 363 833 l 256 931 l 149 833 l 117 881 l 242 1042 l 268 1042 z "},"ã":{"ha":511,"x_min":63,"x_max":433,"o":"m 63 232 q 101 412 63 364 q 213 460 140 460 q 326 404 285 460 l 326 550 q 243 683 326 683 q 108 601 172 683 l 71 679 q 152 744 103 718 q 253 771 201 771 q 433 526 433 771 l 433 0 l 368 0 l 346 90 q 295 7 331 35 q 215 -21 260 -21 q 101 27 140 -21 q 63 207 63 75 l 63 232 m 238 67 q 301 96 278 67 q 326 201 324 125 l 326 239 q 301 353 324 321 q 238 385 278 385 q 168 253 168 385 l 168 199 q 238 67 168 67 m 318 874 q 263 894 299 874 q 211 914 228 914 q 149 871 182 914 l 117 924 q 218 1011 163 1011 q 273 992 238 1011 q 325 972 308 972 q 386 1014 356 972 l 419 961 q 318 874 368 874 z "},"ä":{"ha":511,"x_min":63,"x_max":433,"o":"m 63 232 q 101 412 63 364 q 213 460 140 460 q 326 404 285 460 l 326 550 q 243 683 326 683 q 108 601 172 683 l 71 679 q 152 744 103 718 q 253 771 201 771 q 433 526 433 771 l 433 0 l 368 0 l 346 90 q 295 7 331 35 q 215 -21 260 -21 q 101 27 140 -21 q 63 207 63 75 l 63 232 m 238 67 q 301 96 278 67 q 326 201 324 125 l 326 239 q 301 353 324 321 q 238 385 278 385 q 168 253 168 385 l 168 199 q 238 67 168 67 m 104 897 l 104 1028 l 217 1028 l 217 897 l 104 897 m 299 897 l 299 1028 l 410 1028 l 410 897 l 299 897 z "},"å":{"ha":511,"x_min":63,"x_max":433,"o":"m 63 232 q 101 412 63 364 q 213 460 140 460 q 326 404 285 460 l 326 550 q 243 683 326 683 q 108 601 172 683 l 71 679 q 152 744 103 718 q 253 771 201 771 q 433 526 433 771 l 433 0 l 368 0 l 346 90 q 295 7 331 35 q 215 -21 260 -21 q 101 27 140 -21 q 63 207 63 75 l 63 232 m 238 67 q 301 96 278 67 q 326 201 324 125 l 326 239 q 301 353 324 321 q 238 385 278 385 q 168 253 168 385 l 168 199 q 238 67 168 67 m 382 968 l 382 949 q 354 842 382 871 q 276 814 326 814 q 199 842 226 814 q 171 949 171 871 l 171 968 q 199 1074 171 1046 q 276 1103 226 1103 q 354 1074 326 1103 q 382 968 382 1046 m 314 940 l 314 976 q 276 1044 314 1044 q 239 976 239 1044 l 239 940 q 276 872 239 872 q 314 940 314 872 z "},"æ":{"ha":788,"x_min":63,"x_max":719,"o":"m 526 -21 q 350 94 392 -21 q 299 8 336 38 q 215 -21 263 -21 q 101 23 140 -21 q 63 188 63 67 l 63 218 q 101 383 63 339 q 215 426 140 426 l 326 426 l 326 550 q 243 683 326 683 q 108 601 172 683 l 71 679 q 152 744 103 718 q 253 771 201 771 q 385 715 340 771 q 527 771 433 771 q 670 708 621 771 q 719 479 719 646 l 719 338 l 433 338 l 433 251 q 524 65 433 65 q 589 97 565 65 q 621 210 613 128 l 715 194 q 658 26 704 74 q 526 -21 611 -21 m 613 499 q 523 685 613 685 q 433 499 433 685 l 433 426 l 613 426 l 613 499 m 238 338 q 168 226 168 338 l 168 176 q 238 67 168 67 q 303 94 279 67 q 326 193 326 121 l 326 338 l 238 338 z "},"ç":{"ha":488,"x_min":68,"x_max":442,"o":"m 343 -169 q 251 -271 343 -271 q 167 -178 176 -271 l 224 -167 q 233 -205 226 -196 q 251 -214 239 -214 q 278 -172 278 -214 l 278 -158 q 267 -124 278 -139 q 217 -99 256 -110 l 228 -19 q 68 243 68 -7 l 68 479 q 117 708 68 644 q 249 771 165 771 q 381 725 333 771 q 438 560 428 679 l 340 533 q 256 685 335 685 q 194 649 215 685 q 174 499 174 613 l 174 233 q 195 101 174 136 q 257 67 217 67 q 319 101 297 67 q 351 232 342 135 l 442 218 q 388 40 431 93 q 271 -19 344 -14 l 267 -68 q 343 -169 343 -90 z "},"è":{"ha":526,"x_min":68,"x_max":458,"o":"m 456 194 q 399 26 446 74 q 262 -21 351 -21 q 120 42 172 -21 q 68 271 68 106 l 68 479 q 120 708 68 644 q 267 771 172 771 q 410 708 361 771 q 458 479 458 646 l 458 331 l 174 331 l 174 251 q 263 65 174 65 q 329 96 306 65 q 363 210 353 126 l 456 194 m 174 499 l 174 419 l 351 419 l 351 499 q 264 685 351 685 q 174 499 174 685 m 199 1050 l 379 886 l 349 836 l 150 957 l 199 1050 z "},"é":{"ha":526,"x_min":68,"x_max":458,"o":"m 456 194 q 399 26 446 74 q 262 -21 351 -21 q 120 42 172 -21 q 68 271 68 106 l 68 479 q 120 708 68 644 q 267 771 172 771 q 410 708 361 771 q 458 479 458 646 l 458 331 l 174 331 l 174 251 q 263 65 174 65 q 329 96 306 65 q 363 210 353 126 l 456 194 m 174 499 l 174 419 l 351 419 l 351 499 q 264 685 351 685 q 174 499 174 685 m 160 886 l 340 1050 l 389 957 l 190 836 l 160 886 z "},"ê":{"ha":526,"x_min":68,"x_max":458,"o":"m 456 194 q 399 26 446 74 q 262 -21 351 -21 q 120 42 172 -21 q 68 271 68 106 l 68 479 q 120 708 68 644 q 267 771 172 771 q 410 708 361 771 q 458 479 458 646 l 458 331 l 174 331 l 174 251 q 263 65 174 65 q 329 96 306 65 q 363 210 353 126 l 456 194 m 174 499 l 174 419 l 351 419 l 351 499 q 264 685 351 685 q 174 499 174 685 m 276 1042 l 404 881 l 371 833 l 264 931 l 157 833 l 125 881 l 250 1042 l 276 1042 z "},"ë":{"ha":526,"x_min":68,"x_max":458,"o":"m 456 194 q 399 26 446 74 q 262 -21 351 -21 q 120 42 172 -21 q 68 271 68 106 l 68 479 q 120 708 68 644 q 267 771 172 771 q 410 708 361 771 q 458 479 458 646 l 458 331 l 174 331 l 174 251 q 263 65 174 65 q 329 96 306 65 q 363 210 353 126 l 456 194 m 174 499 l 174 419 l 351 419 l 351 499 q 264 685 351 685 q 174 499 174 685 m 111 897 l 111 1028 l 224 1028 l 224 897 l 111 897 m 306 897 l 306 1028 l 417 1028 l 417 897 l 306 897 z "},"ì":{"ha":282,"x_min":26,"x_max":256,"o":"m 88 0 l 88 750 l 194 750 l 194 0 l 88 0 m 75 1050 l 256 886 l 225 836 l 26 957 l 75 1050 z "},"í":{"ha":282,"x_min":38,"x_max":267,"o":"m 88 0 l 88 750 l 194 750 l 194 0 l 88 0 m 38 886 l 218 1050 l 267 957 l 68 836 l 38 886 z "},"î":{"ha":282,"x_min":3,"x_max":282,"o":"m 88 0 l 88 750 l 194 750 l 194 0 l 88 0 m 154 1042 l 282 881 l 249 833 l 142 931 l 35 833 l 3 881 l 128 1042 l 154 1042 z "},"ï":{"ha":282,"x_min":-11,"x_max":294,"o":"m 88 0 l 88 750 l 194 750 l 194 0 l 88 0 m -11 897 l -11 1028 l 101 1028 l 101 897 l -11 897 m 183 897 l 183 1028 l 294 1028 l 294 897 l 183 897 z "},"ð":{"ha":526,"x_min":68,"x_max":497,"o":"m 458 574 l 458 271 q 408 42 458 106 q 263 -21 357 -21 q 119 42 169 -21 q 68 271 68 106 l 68 451 q 239 743 68 743 q 357 667 319 743 q 332 889 353 797 l 213 831 l 213 901 l 313 950 q 263 1021 293 996 q 206 1051 232 1046 q 142 1056 181 1056 l 129 1142 q 290 1112 225 1142 q 397 990 356 1082 l 497 1039 l 497 969 l 418 931 q 458 574 458 799 m 351 251 l 351 471 q 264 657 351 657 q 174 471 174 657 l 174 251 q 264 65 174 65 q 351 251 351 65 z "},"ñ":{"ha":553,"x_min":88,"x_max":475,"o":"m 194 0 l 88 0 l 88 750 l 153 750 l 181 631 q 326 771 210 771 q 437 707 399 771 q 475 474 475 643 l 475 0 l 368 0 l 368 511 q 300 685 368 685 q 194 388 197 685 l 194 0 m 339 874 q 284 894 319 874 q 232 914 249 914 q 169 871 203 914 l 138 924 q 239 1011 183 1011 q 294 992 258 1011 q 346 972 329 972 q 407 1014 376 972 l 440 961 q 339 874 389 874 z "},"ò":{"ha":526,"x_min":68,"x_max":458,"o":"m 458 479 l 458 271 q 408 42 458 106 q 263 -21 357 -21 q 119 42 169 -21 q 68 271 68 106 l 68 479 q 119 708 68 644 q 263 771 169 771 q 408 708 357 771 q 458 479 458 644 m 351 251 l 351 499 q 264 685 351 685 q 174 499 174 685 l 174 251 q 264 65 174 65 q 351 251 351 65 m 199 1050 l 379 886 l 349 836 l 150 957 l 199 1050 z "},"ó":{"ha":526,"x_min":68,"x_max":458,"o":"m 458 479 l 458 271 q 408 42 458 106 q 263 -21 357 -21 q 119 42 169 -21 q 68 271 68 106 l 68 479 q 119 708 68 644 q 263 771 169 771 q 408 708 357 771 q 458 479 458 644 m 351 251 l 351 499 q 264 685 351 685 q 174 499 174 685 l 174 251 q 264 65 174 65 q 351 251 351 65 m 160 886 l 340 1050 l 389 957 l 190 836 l 160 886 z "},"ô":{"ha":526,"x_min":68,"x_max":458,"o":"m 458 479 l 458 271 q 408 42 458 106 q 263 -21 357 -21 q 119 42 169 -21 q 68 271 68 106 l 68 479 q 119 708 68 644 q 263 771 169 771 q 408 708 357 771 q 458 479 458 644 m 351 251 l 351 499 q 264 685 351 685 q 174 499 174 685 l 174 251 q 264 65 174 65 q 351 251 351 65 m 276 1042 l 404 881 l 371 833 l 264 931 l 157 833 l 125 881 l 250 1042 l 276 1042 z "},"õ":{"ha":526,"x_min":68,"x_max":458,"o":"m 458 479 l 458 271 q 408 42 458 106 q 263 -21 357 -21 q 119 42 169 -21 q 68 271 68 106 l 68 479 q 119 708 68 644 q 263 771 169 771 q 408 708 357 771 q 458 479 458 644 m 351 251 l 351 499 q 264 685 351 685 q 174 499 174 685 l 174 251 q 264 65 174 65 q 351 251 351 65 m 315 874 q 260 894 296 874 q 208 914 225 914 q 146 871 179 914 l 114 924 q 215 1011 160 1011 q 270 992 235 1011 q 322 972 306 972 q 383 1014 353 972 l 417 961 q 315 874 365 874 z "},"ö":{"ha":526,"x_min":68,"x_max":458,"o":"m 458 479 l 458 271 q 408 42 458 106 q 263 -21 357 -21 q 119 42 169 -21 q 68 271 68 106 l 68 479 q 119 708 68 644 q 263 771 169 771 q 408 708 357 771 q 458 479 458 644 m 351 251 l 351 499 q 264 685 351 685 q 174 499 174 685 l 174 251 q 264 65 174 65 q 351 251 351 65 m 111 897 l 111 1028 l 224 1028 l 224 897 l 111 897 m 306 897 l 306 1028 l 417 1028 l 417 897 l 306 897 z "},"÷":{"ha":524,"x_min":78,"x_max":444,"o":"m 214 190 l 214 299 l 307 299 l 307 190 l 214 190 m 214 674 l 214 782 l 307 782 l 307 674 l 214 674 m 78 443 l 78 529 l 444 529 l 444 443 l 78 443 z "},"ø":{"ha":526,"x_min":68,"x_max":458,"o":"m 68 271 l 68 479 q 119 708 68 644 q 264 771 169 771 q 310 767 289 771 l 346 933 l 418 933 l 376 739 q 458 479 458 678 l 458 271 q 408 42 458 106 q 264 -21 357 -21 q 214 -17 236 -21 l 179 -183 l 107 -183 l 149 11 q 68 271 68 74 m 351 251 l 351 499 q 344 590 351 549 l 233 71 q 264 65 246 65 q 351 251 351 65 m 174 251 q 181 160 174 201 l 292 679 q 264 685 279 685 q 174 499 174 685 l 174 251 z "},"ù":{"ha":543,"x_min":78,"x_max":454,"o":"m 349 750 l 454 750 l 454 0 l 389 0 l 367 92 q 232 -21 335 -21 q 117 26 156 -21 q 78 207 78 74 l 78 750 l 183 750 l 183 199 q 202 94 183 122 q 258 67 221 67 q 349 201 343 67 l 349 750 m 206 1050 l 386 886 l 356 836 l 157 957 l 206 1050 z "},"ú":{"ha":543,"x_min":78,"x_max":454,"o":"m 349 750 l 454 750 l 454 0 l 389 0 l 367 92 q 232 -21 335 -21 q 117 26 156 -21 q 78 207 78 74 l 78 750 l 183 750 l 183 199 q 202 94 183 122 q 258 67 221 67 q 349 201 343 67 l 349 750 m 167 886 l 347 1050 l 396 957 l 197 836 l 167 886 z "},"û":{"ha":543,"x_min":78,"x_max":454,"o":"m 349 750 l 454 750 l 454 0 l 389 0 l 367 92 q 232 -21 335 -21 q 117 26 156 -21 q 78 207 78 74 l 78 750 l 183 750 l 183 199 q 202 94 183 122 q 258 67 221 67 q 349 201 343 67 l 349 750 m 283 1042 l 411 881 l 378 833 l 271 931 l 164 833 l 132 881 l 257 1042 l 283 1042 z "},"ü":{"ha":543,"x_min":78,"x_max":454,"o":"m 349 750 l 454 750 l 454 0 l 389 0 l 367 92 q 232 -21 335 -21 q 117 26 156 -21 q 78 207 78 74 l 78 750 l 183 750 l 183 199 q 202 94 183 122 q 258 67 221 67 q 349 201 343 67 l 349 750 m 118 897 l 118 1028 l 231 1028 l 231 897 l 118 897 m 313 897 l 313 1028 l 424 1028 l 424 897 l 313 897 z "},"ý":{"ha":485,"x_min":-10,"x_max":461,"o":"m 269 -114 q 213 -231 253 -190 q 115 -271 174 -271 q -10 -208 56 -271 l 28 -136 q 117 -182 79 -182 q 194 -68 175 -182 l 206 -4 l 22 750 l 129 750 l 249 206 l 353 750 l 461 750 l 269 -114 m 158 886 l 339 1050 l 388 957 l 189 836 l 158 886 z "},"þ":{"ha":542,"x_min":88,"x_max":474,"o":"m 189 1029 l 189 660 q 322 771 226 771 q 435 708 396 771 q 474 479 474 646 l 474 271 q 435 42 474 104 q 322 -21 396 -21 q 189 110 221 -21 l 189 -250 l 88 -250 l 88 1029 l 189 1029 m 189 375 q 205 178 189 250 q 242 85 221 106 q 297 65 263 65 q 372 238 372 65 l 372 513 q 299 685 372 685 q 245 665 267 685 q 207 579 224 646 q 189 394 190 513 l 189 375 z "},"ÿ":{"ha":485,"x_min":-10,"x_max":461,"o":"m 269 -114 q 213 -231 253 -190 q 115 -271 174 -271 q -10 -208 56 -271 l 28 -136 q 117 -182 79 -182 q 194 -68 175 -182 l 206 -4 l 22 750 l 129 750 l 249 206 l 353 750 l 461 750 l 269 -114 m 100 897 l 100 1028 l 213 1028 l 213 897 l 100 897 m 294 897 l 294 1028 l 406 1028 l 406 897 l 294 897 z "},"ı":{"ha":282,"x_min":88,"x_max":194,"o":"m 88 0 l 88 750 l 194 750 l 194 0 l 88 0 z "},"Ł":{"ha":435,"x_min":25,"x_max":414,"o":"m 88 972 l 199 972 l 199 550 l 310 604 l 310 529 l 199 475 l 199 89 l 414 89 l 414 0 l 88 0 l 88 421 l 25 390 l 25 467 l 88 496 l 88 972 z "},"ł":{"ha":282,"x_min":-1,"x_max":283,"o":"m 88 1028 l 194 1028 l 194 561 l 283 604 l 283 529 l 194 485 l 194 0 l 88 0 l 88 433 l -1 390 l -1 467 l 88 510 l 88 1028 z "},"Œ":{"ha":806,"x_min":68,"x_max":746,"o":"m 503 682 l 503 529 l 721 529 l 721 440 l 503 440 l 503 290 q 471 89 503 160 l 746 89 l 746 0 l 390 0 q 286 -21 349 -21 q 124 47 181 -21 q 68 290 68 114 l 68 682 q 124 926 68 858 q 286 993 181 993 q 390 972 349 993 l 740 972 l 740 883 l 471 883 q 503 682 503 811 m 393 269 l 393 703 q 286 903 393 903 q 206 860 235 903 q 178 703 178 817 l 178 269 q 206 113 178 156 q 286 69 235 69 q 393 269 393 69 z "},"œ":{"ha":813,"x_min":68,"x_max":744,"o":"m 742 194 q 685 26 732 74 q 546 -21 638 -21 q 407 42 454 -21 q 265 -21 361 -21 q 119 42 169 -21 q 68 271 68 106 l 68 479 q 119 708 68 644 q 265 771 169 771 q 407 708 361 771 q 551 771 454 771 q 696 708 647 771 q 744 479 744 646 l 744 331 l 460 331 l 460 251 q 549 65 460 65 q 615 96 592 65 q 649 210 639 126 l 742 194 m 351 251 l 351 499 q 264 685 351 685 q 174 499 174 685 l 174 251 q 264 65 174 65 q 351 251 351 65 m 460 499 l 460 419 l 638 419 l 638 499 q 550 685 638 685 q 460 499 460 685 z "},"Š":{"ha":553,"x_min":58,"x_max":494,"o":"m 386 218 q 311 389 386 329 l 200 471 q 75 733 75 560 q 130 935 75 878 q 280 993 185 993 q 428 940 375 993 q 492 746 481 886 l 386 722 q 283 900 381 900 q 185 749 185 900 q 199 640 185 682 q 256 565 214 599 l 365 483 q 428 431 404 456 q 473 351 451 406 q 494 221 494 296 q 437 33 494 88 q 281 -21 379 -21 q 126 43 182 -21 q 58 271 71 107 l 163 289 q 197 121 168 171 q 276 71 225 71 q 386 218 386 71 m 272 1056 l 147 1215 l 179 1264 l 286 1167 l 393 1264 l 426 1215 l 299 1056 l 272 1056 z "},"š":{"ha":494,"x_min":58,"x_max":438,"o":"m 335 168 q 276 289 335 247 l 181 357 q 74 567 74 428 q 122 725 74 679 q 251 771 169 771 q 379 728 333 771 q 435 571 425 685 l 339 551 q 253 686 332 686 q 175 576 175 686 q 233 444 175 488 l 325 381 q 380 338 360 357 q 419 276 400 319 q 438 174 438 232 q 388 23 438 67 q 252 -21 338 -21 q 118 30 167 -21 q 58 208 69 81 l 157 226 q 185 100 163 136 q 249 64 208 64 q 335 168 335 64 m 243 833 l 118 993 l 150 1042 l 257 944 l 364 1042 l 397 993 l 269 833 l 243 833 z "},"Ÿ":{"ha":519,"x_min":22,"x_max":496,"o":"m 314 0 l 206 0 l 206 325 l 22 972 l 131 972 l 260 471 l 388 972 l 496 972 l 314 325 l 314 0 m 107 1119 l 107 1250 l 219 1250 l 219 1119 l 107 1119 m 301 1119 l 301 1250 l 413 1250 l 413 1119 l 301 1119 z "},"Ž":{"ha":488,"x_min":32,"x_max":456,"o":"m 32 0 l 32 53 l 340 883 l 58 883 l 58 972 l 456 972 l 456 919 l 147 89 l 456 89 l 456 0 l 32 0 m 249 1056 l 124 1215 l 156 1264 l 263 1167 l 369 1264 l 403 1215 l 275 1056 l 249 1056 z "},"ž":{"ha":444,"x_min":42,"x_max":406,"o":"m 42 0 l 42 57 l 288 664 l 57 664 l 57 750 l 404 750 l 404 693 l 154 86 l 406 86 l 406 0 l 42 0 m 228 833 l 103 993 l 135 1042 l 242 944 l 349 1042 l 382 993 l 254 833 l 228 833 z "},"ƒ":{"ha":304,"x_min":-51,"x_max":333,"o":"m 265 956 q 212 917 229 956 q 194 778 194 879 l 194 647 l 282 647 l 282 575 l 194 575 l 194 21 q 152 -208 194 -144 q 33 -271 110 -271 q -51 -254 -14 -271 l -31 -164 q 17 -178 -4 -178 q 69 -140 51 -178 q 88 0 88 -101 l 88 575 l 17 575 l 17 647 l 88 647 l 88 757 q 130 985 88 922 q 249 1049 172 1049 q 333 1032 296 1049 l 313 942 q 265 956 286 956 z "},"ˆ":{"ha":365,"x_min":43,"x_max":322,"o":"m 194 1042 l 322 881 l 289 833 l 182 931 l 75 833 l 43 881 l 168 1042 l 194 1042 z "},"ˇ":{"ha":365,"x_min":43,"x_max":322,"o":"m 168 833 l 43 993 l 75 1042 l 182 944 l 289 1042 l 322 993 l 194 833 l 168 833 z "},"˘":{"ha":374,"x_min":58,"x_max":317,"o":"m 200 851 l 174 851 q 82 892 106 851 q 58 1011 58 933 l 115 1011 q 128 962 115 978 q 178 946 140 946 l 197 946 q 258 1011 258 946 l 317 1011 q 292 892 317 933 q 200 851 268 851 z "},"˙":{"ha":282,"x_min":83,"x_max":199,"o":"m 83 897 l 83 1028 l 199 1028 l 199 897 l 83 897 z "},"˚":{"ha":278,"x_min":33,"x_max":244,"o":"m 244 968 l 244 949 q 217 842 244 871 q 139 814 189 814 q 61 842 89 814 q 33 949 33 871 l 33 968 q 61 1074 33 1046 q 139 1103 89 1103 q 217 1074 189 1103 q 244 968 244 1046 m 176 940 l 176 976 q 139 1044 176 1044 q 101 976 101 1044 l 101 940 q 139 872 101 872 q 176 940 176 872 z "},"˛":{"ha":340,"x_min":58,"x_max":282,"o":"m 154 -275 q 58 -162 58 -275 q 140 0 58 -82 l 207 0 q 140 -150 140 -76 q 164 -200 140 -200 q 225 -112 200 -200 l 282 -125 q 154 -275 247 -275 z "},"˜":{"ha":417,"x_min":57,"x_max":360,"o":"m 258 874 q 203 894 239 874 q 151 914 168 914 q 89 871 122 914 l 57 924 q 158 1011 103 1011 q 213 992 178 1011 q 265 972 249 972 q 326 1014 296 972 l 360 961 q 258 874 308 874 z "},"˝":{"ha":497,"x_min":88,"x_max":469,"o":"m 88 881 l 218 1053 l 279 969 l 128 836 l 88 881 m 278 881 l 408 1053 l 469 969 l 318 836 l 278 881 z "},"π":{"ha":667,"x_min":49,"x_max":558,"o":"m 378 0 l 378 663 l 228 663 l 228 0 l 118 0 l 118 663 l 49 663 l 49 751 l 558 751 l 558 663 l 488 663 l 488 0 l 378 0 z "},"–":{"ha":557,"x_min":58,"x_max":500,"o":"m 58 381 l 58 467 l 500 467 l 500 381 l 58 381 z "},"—":{"ha":683,"x_min":58,"x_max":625,"o":"m 58 381 l 58 467 l 625 467 l 625 381 l 58 381 z "},"‘":{"ha":226,"x_min":58,"x_max":168,"o":"m 168 886 l 168 758 l 58 758 l 58 881 l 111 1053 l 156 1044 l 139 886 l 168 886 z "},"’":{"ha":226,"x_min":58,"x_max":168,"o":"m 58 908 l 58 1036 l 168 1036 l 168 914 l 114 742 l 72 750 l 89 908 l 58 908 z "},"‚":{"ha":226,"x_min":58,"x_max":168,"o":"m 58 0 l 58 128 l 168 128 l 168 6 l 114 -167 l 72 -158 l 89 0 l 58 0 z "},"“":{"ha":383,"x_min":58,"x_max":326,"o":"m 168 886 l 168 758 l 58 758 l 58 881 l 111 1053 l 156 1044 l 139 886 l 168 886 m 326 886 l 326 758 l 217 758 l 217 881 l 269 1053 l 314 1044 l 297 886 l 326 886 z "},"”":{"ha":383,"x_min":58,"x_max":326,"o":"m 217 908 l 217 1036 l 326 1036 l 326 914 l 272 742 l 231 750 l 247 908 l 217 908 m 58 908 l 58 1036 l 168 1036 l 168 914 l 114 742 l 72 750 l 89 908 l 58 908 z "},"„":{"ha":383,"x_min":58,"x_max":326,"o":"m 217 0 l 217 128 l 326 128 l 326 6 l 272 -167 l 231 -158 l 247 0 l 217 0 m 58 0 l 58 128 l 168 128 l 168 6 l 114 -167 l 72 -158 l 89 0 l 58 0 z "},"†":{"ha":575,"x_min":74,"x_max":501,"o":"m 501 883 l 340 883 l 340 0 l 236 0 l 236 883 l 74 883 l 74 972 l 236 972 l 236 1226 l 340 1226 l 340 972 l 501 972 l 501 883 z "},"‡":{"ha":575,"x_min":74,"x_max":501,"o":"m 501 254 l 340 254 l 340 0 l 236 0 l 236 254 l 74 254 l 74 343 l 236 343 l 236 883 l 74 883 l 74 972 l 236 972 l 236 1226 l 340 1226 l 340 972 l 501 972 l 501 883 l 340 883 l 340 343 l 501 343 l 501 254 z "},"•":{"ha":281,"x_min":38,"x_max":243,"o":"m 139 368 l 38 486 l 139 604 l 243 486 l 139 368 z "},"…":{"ha":626,"x_min":58,"x_max":568,"o":"m 58 0 l 58 128 l 168 128 l 168 0 l 58 0 m 258 0 l 258 128 l 368 128 l 368 0 l 258 0 m 458 0 l 458 128 l 568 128 l 568 0 l 458 0 z "},"‰":{"ha":1332,"x_min":54,"x_max":1279,"o":"m 306 -21 l 560 993 l 639 993 l 385 -21 l 306 -21 m 349 807 l 349 571 q 310 425 349 465 q 201 385 272 385 q 92 425 131 385 q 54 571 54 465 l 54 807 q 92 953 54 913 q 201 993 131 993 q 310 953 272 993 q 349 807 349 913 m 260 558 l 260 819 q 201 925 260 925 q 142 819 142 925 l 142 558 q 201 453 142 453 q 260 558 260 453 m 908 401 l 908 165 q 870 19 908 60 q 761 -21 832 -21 q 652 19 690 -21 q 614 165 614 60 l 614 401 q 652 547 614 507 q 761 588 690 588 q 870 547 832 588 q 908 401 908 507 m 819 153 l 819 414 q 760 519 819 519 q 701 414 701 519 l 701 153 q 760 47 701 47 q 819 153 819 47 m 1279 401 l 1279 165 q 1241 19 1279 60 q 1132 -21 1203 -21 q 1023 19 1061 -21 q 985 165 985 60 l 985 401 q 1023 547 985 507 q 1132 588 1061 588 q 1241 547 1203 588 q 1279 401 1279 507 m 1190 153 l 1190 414 q 1131 519 1190 519 q 1072 414 1072 519 l 1072 153 q 1131 47 1072 47 q 1190 153 1190 47 z "},"‹":{"ha":274,"x_min":44,"x_max":229,"o":"m 44 399 l 44 490 l 190 699 l 229 663 l 135 444 l 229 226 l 190 190 l 44 399 z "},"›":{"ha":274,"x_min":17,"x_max":201,"o":"m 201 490 l 201 399 l 56 190 l 17 226 l 111 444 l 17 663 l 56 699 l 201 490 z "},"⁄":{"ha":406,"x_min":36,"x_max":369,"o":"m 36 -21 l 290 993 l 369 993 l 115 -21 l 36 -21 z "},"₀":{"ha":403,"x_min":54,"x_max":349,"o":"m 349 401 l 349 165 q 310 19 349 60 q 201 -21 272 -21 q 92 19 131 -21 q 54 165 54 60 l 54 401 q 92 547 54 507 q 201 588 131 588 q 310 547 272 588 q 349 401 349 507 m 260 153 l 260 414 q 201 519 260 519 q 142 414 142 519 l 142 153 q 201 47 142 47 q 260 153 260 47 z "},"₁":{"ha":246,"x_min":15,"x_max":181,"o":"m 181 583 l 181 0 l 93 0 l 93 499 l 15 499 l 15 547 l 124 583 l 181 583 z "},"₂":{"ha":378,"x_min":49,"x_max":329,"o":"m 50 439 q 94 562 58 528 q 193 596 129 596 q 293 564 257 596 q 329 453 329 532 q 275 292 329 374 l 128 68 l 325 68 l 325 0 l 49 0 l 49 42 q 118 211 49 117 l 213 347 q 243 449 243 400 q 190 529 243 529 q 149 508 164 529 q 131 428 135 486 l 50 439 z "},"₃":{"ha":383,"x_min":43,"x_max":329,"o":"m 181 47 q 240 133 240 47 l 240 160 q 225 237 240 218 q 178 256 210 256 l 135 256 l 135 318 l 183 318 q 236 403 236 318 l 236 433 q 185 521 236 521 q 143 499 157 521 q 125 419 129 478 l 44 431 q 87 553 51 518 q 188 588 122 588 q 287 552 253 588 q 321 425 321 517 q 278 297 321 333 q 329 157 329 260 q 290 17 329 54 q 184 -21 250 -21 q 85 13 118 -21 q 43 136 51 47 l 122 150 q 142 69 128 92 q 181 47 156 47 z "},"₄":{"ha":374,"x_min":18,"x_max":336,"o":"m 215 0 l 215 129 l 18 129 l 18 175 l 151 583 l 303 583 l 303 199 l 336 199 l 336 129 l 303 129 l 303 0 l 215 0 m 215 199 l 215 525 l 110 199 l 215 199 z "},"₅":{"ha":372,"x_min":49,"x_max":331,"o":"m 67 267 l 67 575 l 317 575 l 317 507 l 151 507 l 151 331 l 183 331 q 293 296 256 331 q 331 160 331 261 q 292 19 331 60 q 189 -21 254 -21 q 90 13 124 -21 q 49 136 57 47 l 129 150 q 147 69 133 92 q 185 47 161 47 q 243 153 243 47 l 243 176 q 228 247 243 228 q 183 267 214 267 l 67 267 z "},"₆":{"ha":397,"x_min":54,"x_max":349,"o":"m 349 157 q 309 17 349 56 q 199 -21 269 -21 q 92 17 129 -21 q 54 157 54 56 l 54 404 q 93 548 54 508 q 196 588 132 588 q 294 557 260 588 q 336 450 329 526 l 253 426 q 236 499 249 479 q 200 519 224 519 q 142 417 142 519 l 142 301 q 213 336 172 336 q 349 157 349 336 m 264 146 l 264 172 q 203 272 264 272 q 142 176 142 272 l 142 146 q 203 46 142 46 q 264 146 264 46 z "},"₇":{"ha":314,"x_min":22,"x_max":293,"o":"m 22 515 l 22 583 l 293 583 l 293 538 l 151 0 l 60 0 l 200 515 l 22 515 z "},"₈":{"ha":393,"x_min":49,"x_max":344,"o":"m 332 435 q 268 292 332 321 q 344 140 344 264 q 306 14 344 49 q 197 -21 268 -21 q 87 14 125 -21 q 49 140 49 49 q 125 292 49 265 q 58 435 58 321 q 94 554 58 521 q 196 588 131 588 q 297 554 261 588 q 332 435 332 521 m 256 138 l 256 165 q 197 257 256 257 q 135 165 135 257 l 135 138 q 197 46 135 46 q 256 138 256 46 m 250 401 l 250 443 q 197 521 250 521 q 143 443 143 521 l 143 401 q 197 324 143 324 q 250 401 250 324 z "},"₉":{"ha":397,"x_min":49,"x_max":343,"o":"m 343 163 q 304 19 343 58 q 199 -21 265 -21 q 97 15 132 -21 q 54 139 61 50 l 132 151 q 153 69 138 92 q 196 47 168 47 q 239 69 224 47 q 254 150 254 92 l 254 261 q 185 231 219 231 q 49 410 49 231 q 88 549 49 511 q 197 588 126 588 q 305 549 267 588 q 343 410 343 511 l 343 163 m 133 421 l 133 394 q 194 294 133 294 q 254 394 254 294 l 254 421 q 194 521 254 521 q 133 421 133 521 z "},"€":{"ha":533,"x_min":17,"x_max":492,"o":"m 17 561 l 17 633 l 71 633 l 71 675 q 127 925 71 857 q 278 993 183 993 q 422 949 372 993 q 483 790 472 904 l 381 775 q 350 876 372 849 q 282 903 328 903 q 208 859 236 903 q 179 699 179 815 l 179 633 l 346 633 l 346 561 l 179 561 l 179 425 l 346 425 l 346 353 l 179 353 l 179 268 q 208 113 179 156 q 285 69 236 69 q 358 101 333 69 q 390 224 382 133 l 492 215 q 429 31 481 83 q 281 -21 378 -21 q 127 47 183 -21 q 71 297 71 115 l 71 353 l 17 353 l 17 425 l 71 425 l 71 561 l 17 561 z "},"™":{"ha":756,"x_min":19,"x_max":693,"o":"m 392 417 l 317 417 l 317 1049 l 432 1049 l 504 572 l 576 1049 l 693 1049 l 693 417 l 617 417 l 617 975 l 542 507 l 465 507 l 392 976 l 392 417 m 19 988 l 19 1049 l 264 1049 l 264 988 l 179 988 l 179 417 l 103 417 l 103 988 l 19 988 z "},"Ω":{"ha":646,"x_min":64,"x_max":578,"o":"m 356 0 l 356 310 q 469 508 469 326 l 469 703 q 431 859 469 815 q 324 903 393 903 q 215 859 254 903 q 176 703 176 815 l 176 508 q 279 310 176 331 l 288 310 l 288 0 l 64 0 l 64 89 l 192 89 l 192 243 q 68 529 68 303 l 68 682 q 134 926 68 858 q 323 993 200 993 q 512 926 446 993 q 578 682 578 858 l 578 529 q 453 243 578 303 l 453 89 l 578 89 l 578 0 l 356 0 z "},"∂":{"ha":536,"x_min":50,"x_max":478,"o":"m 378 643 l 379 722 q 379 775 379 733 q 370 874 379 817 q 346 965 361 932 q 304 1015 331 997 q 256 1035 278 1032 q 201 1039 235 1039 l 201 1115 q 288 1110 253 1115 q 361 1083 322 1104 q 424 1022 400 1061 q 478 747 478 935 q 435 271 478 693 q 363 42 418 106 q 222 -21 307 -21 q 93 26 136 -21 q 50 194 50 72 q 54 271 50 229 l 72 451 q 268 743 101 743 q 378 643 349 743 m 282 657 q 216 616 242 657 q 181 471 190 575 q 156 186 156 196 q 228 65 157 65 q 292 106 267 65 q 328 251 318 147 q 353 536 353 510 q 282 657 351 657 z "},"∆":{"ha":547,"x_min":22,"x_max":525,"o":"m 347 972 l 525 0 l 22 0 l 200 972 l 347 972 m 272 817 l 149 89 l 396 89 l 272 817 z "},"∏":{"ha":667,"x_min":49,"x_max":618,"o":"m 428 -139 l 428 883 l 238 883 l 238 -139 l 128 -139 l 128 883 l 49 883 l 49 972 l 618 972 l 618 883 l 538 883 l 538 -139 l 428 -139 z "},"∑":{"ha":490,"x_min":22,"x_max":468,"o":"m 458 972 l 458 883 l 157 883 l 335 417 l 157 -50 l 468 -50 l 468 -139 l 22 -139 l 229 417 l 22 972 l 458 972 z "},"−":{"ha":524,"x_min":78,"x_max":444,"o":"m 78 443 l 78 529 l 444 529 l 444 443 l 78 443 z "},"√":{"ha":642,"x_min":72,"x_max":722,"o":"m 722 1142 l 722 1053 l 576 1053 l 340 -250 l 204 -250 l 72 450 l 183 450 l 272 -78 l 482 1142 l 722 1142 z "},"∞":{"ha":672,"x_min":51,"x_max":621,"o":"m 51 487 q 51 554 51 487 q 92 673 51 621 q 215 725 132 725 q 333 646 297 725 q 453 725 367 725 q 581 673 540 725 q 621 487 621 621 q 581 301 621 353 q 458 249 540 249 q 339 324 375 249 q 217 249 303 249 q 92 301 132 249 q 51 487 51 353 m 453 335 q 540 486 540 335 q 453 638 540 638 q 399 609 417 638 q 375 517 382 581 l 367 449 q 453 335 385 335 m 218 638 q 133 486 133 638 q 218 335 133 335 q 273 362 256 335 q 297 450 290 389 l 306 522 q 218 638 288 638 z "},"∫":{"ha":325,"x_min":-31,"x_max":356,"o":"m 335 886 q 281 900 308 900 q 217 722 217 900 l 217 21 q 174 -208 217 -144 q 56 -271 132 -271 q -31 -254 7 -271 l -8 -164 q 44 -178 15 -178 q 108 0 108 -178 l 108 701 q 151 930 108 867 q 269 993 194 993 q 356 976 318 993 l 335 886 z "},"≈":{"ha":524,"x_min":78,"x_max":444,"o":"m 78 668 q 152 644 114 644 q 260 667 190 644 q 371 690 331 690 q 444 668 411 690 l 444 582 q 369 606 408 606 q 261 581 331 606 q 152 557 192 557 q 78 582 113 557 l 78 668 m 78 390 q 151 367 113 367 q 260 390 190 367 q 371 413 331 413 q 444 390 411 413 l 444 304 q 369 328 408 328 q 261 303 331 328 q 152 279 192 279 q 78 304 113 279 l 78 390 z "},"≠":{"ha":524,"x_min":78,"x_max":444,"o":"m 78 582 l 78 668 l 268 668 l 350 993 l 429 993 l 347 668 l 444 668 l 444 582 l 325 582 l 278 390 l 444 390 l 444 304 l 256 304 l 175 -21 l 96 -21 l 176 304 l 78 304 l 78 390 l 199 390 l 246 582 l 78 582 z "},"≤":{"ha":524,"x_min":78,"x_max":447,"o":"m 78 440 l 78 532 l 447 740 l 447 649 l 175 486 l 447 324 l 447 232 l 78 440 m 78 0 l 78 86 l 444 86 l 444 0 l 78 0 z "},"≥":{"ha":524,"x_min":78,"x_max":447,"o":"m 447 532 l 447 440 l 78 232 l 78 324 l 351 486 l 78 649 l 78 740 l 447 532 m 78 0 l 78 86 l 444 86 l 444 0 l 78 0 z "},"◊":{"ha":547,"x_min":43,"x_max":506,"o":"m 347 972 l 506 486 l 347 0 l 200 0 l 43 486 l 200 972 l 347 972 m 153 486 l 272 88 l 392 486 l 272 883 l 153 486 z "},"ﬁ":{"ha":557,"x_min":26,"x_max":471,"o":"m 308 942 q 256 956 285 956 q 192 778 192 956 l 192 750 l 279 750 l 279 664 l 192 664 l 192 0 l 86 0 l 86 664 l 26 664 l 26 750 l 86 750 l 86 757 q 128 985 86 922 q 244 1049 169 1049 q 331 1032 292 1049 l 308 942 m 360 0 l 360 750 l 467 750 l 467 0 l 360 0 m 356 897 l 356 1028 l 471 1028 l 471 897 l 356 897 z "},"ﬂ":{"ha":557,"x_min":26,"x_max":467,"o":"m 308 942 q 256 956 285 956 q 192 778 192 956 l 192 750 l 279 750 l 279 664 l 192 664 l 192 0 l 86 0 l 86 664 l 26 664 l 26 750 l 86 750 l 86 757 q 128 985 86 922 q 244 1049 169 1049 q 331 1032 292 1049 l 308 942 m 360 0 l 360 1028 l 467 1028 l 467 0 l 360 0 z "}}}
